<?xml version="1.0" encoding="UTF-8"?>
<!-- Generator: visioncortex VTracer 0.6.2 -->
<svg version="1.1" xmlns="http://www.w3.org/2000/svg" width="1280" height="692">
<path d="M0 0 C0.96679688 -0.01828857 1.93359375 -0.03657715 2.9296875 -0.05541992 C10.88169736 0.01291766 17.56655964 1.80791995 23.96484375 6.6484375 C25.00318359 7.75058594 25.00318359 7.75058594 26.0625 8.875 C27.12791016 9.96941406 27.12791016 9.96941406 28.21484375 11.0859375 C32.67924712 16.72806691 33.6550226 21.32595085 33.5625 28.3125 C33.55420166 29.11349121 33.54590332 29.91448242 33.53735352 30.73974609 C33.24212483 41.05488934 29.36331658 47.29436205 22.125 54.5 C18.94975522 57.37284052 16.17539019 59.11129479 12.125 60.5 C12.125 61.16 12.125 61.82 12.125 62.5 C9.08441144 63.51352952 7.30481443 63.55378048 4.14453125 63.421875 C-8.55965874 63.04187484 -19.15297848 63.4741648 -30.875 68.5 C-31.9280835 68.9340918 -31.9280835 68.9340918 -33.00244141 69.37695312 C-42.98739352 73.54343148 -51.6302859 78.41910141 -59.875 85.5 C-60.64972656 86.16257812 -61.42445313 86.82515625 -62.22265625 87.5078125 C-70.99626858 95.64700136 -79.54126787 107.24160339 -83.875 118.5 C-83.95405064 120.83199388 -83.96298769 123.16832622 -83.875 125.5 C-84.875 128.4375 -84.875 128.4375 -85.875 130.5 C-86.535 130.5 -87.195 130.5 -87.875 130.5 C-88.99821212 137.29543335 -89.22267961 144.06312293 -89.48046875 150.9375 C-89.53654297 152.28714844 -89.53654297 152.28714844 -89.59375 153.6640625 C-89.62404297 154.47311035 -89.65433594 155.2821582 -89.68554688 156.11572266 C-89.88601622 158.63863973 -90.35313541 161.02568679 -90.875 163.5 C-91.16138259 167.94735321 -90.95995571 172.16017716 -89.875 176.5 C-89.215 176.17 -88.555 175.84 -87.875 175.5 C-87.54886719 176.65757812 -87.22273437 177.81515625 -86.88671875 179.0078125 C-86.44562064 180.54696334 -86.00419711 182.08602095 -85.5625 183.625 C-85.34916016 184.38554687 -85.13582031 185.14609375 -84.91601562 185.9296875 C-83.62555844 190.39813627 -82.05607114 194.36842809 -79.875 198.5 C-79.689375 199.263125 -79.50375 200.02625 -79.3125 200.8125 C-79.0959375 201.6478125 -79.0959375 201.6478125 -78.875 202.5 C-78.215 202.83 -77.555 203.16 -76.875 203.5 C-75.8409974 205.14578747 -74.84649199 206.81655677 -73.875 208.5 C-68.63150547 216.55074278 -61.73280617 226.07109691 -52.875 230.5 C-52.875 231.16 -52.875 231.82 -52.875 232.5 C-51.823125 232.87125 -51.823125 232.87125 -50.75 233.25 C-47.875 234.5 -47.875 234.5 -45.375 236.25 C-27.0981096 248.57201383 -2.68348216 252.47506822 18.85693359 249.06787109 C28.385881 247.16137222 37.54118148 244.08402874 46.125 239.5 C46.83269531 239.12617188 47.54039062 238.75234375 48.26953125 238.3671875 C50.86053041 236.94240181 53.02596871 235.59903129 55.125 233.5 C56.115 233.5 57.105 233.5 58.125 233.5 C58.455 232.51 58.785 231.52 59.125 230.5 C61.6875 229.3125 61.6875 229.3125 64.125 228.5 C64.125 227.84 64.125 227.18 64.125 226.5 C64.846875 226.0875 65.56875 225.675 66.3125 225.25 C73.78699692 220.59920192 80.50866564 210.40029968 84.125 202.5 C84.785 202.5 85.445 202.5 86.125 202.5 C86.455 199.86 86.785 197.22 87.125 194.5 C88.115 194.83 89.105 195.16 90.125 195.5 C91.2696875 194.13875 91.2696875 194.13875 92.4375 192.75 C98.16593067 187.08864698 105.49068292 185.28308155 113.375 185.125 C120.99592934 185.42000372 126.77560181 187.39156588 133.125 191.5 C133.785 192.49 134.445 193.48 135.125 194.5 C135.90875 195.056875 136.6925 195.61375 137.5 196.1875 C141.50962137 199.71978549 143.72935844 203.73654343 144.49316406 209.0715332 C144.62393734 211.82950162 144.62237834 214.5523016 144.5625 217.3125 C144.56958984 218.25287109 144.57667969 219.19324219 144.58398438 220.16210938 C144.52007523 227.03971688 144.52007523 227.03971688 142.6887207 229.17333984 C142.17269287 229.6111377 141.65666504 230.04893555 141.125 230.5 C138.66921186 233.5961415 136.53600007 236.88116989 134.375 240.1875 C115.96894654 267.7965802 89.57837555 291.64880147 57.8125 302.5625 C57.0712085 302.81999023 56.32991699 303.07748047 55.56616211 303.34277344 C46.54976556 306.43612571 37.49913319 308.77158065 28.125 310.5 C28.125 311.16 28.125 311.82 28.125 312.5 C23.51495525 313.66144985 19.07112253 313.64467558 14.3515625 313.6328125 C13.08860855 313.63424759 13.08860855 313.63424759 11.80014038 313.63571167 C10.02333501 313.63639048 8.24652713 313.6345571 6.46972656 313.63037109 C3.76621859 313.62503203 1.06287775 313.63031934 -1.640625 313.63671875 C-3.3723962 313.63605765 -5.10416729 313.63477584 -6.8359375 313.6328125 C-7.63720062 313.63483673 -8.43846375 313.63686096 -9.26400757 313.63894653 C-13.90326886 313.61980913 -18.29803866 313.26676095 -22.875 312.5 C-22.875 311.84 -22.875 311.18 -22.875 310.5 C-25.845 310.5 -28.815 310.5 -31.875 310.5 C-31.875 309.84 -31.875 309.18 -31.875 308.5 C-33.86067708 308.56510417 -35.84635417 308.63020833 -37.83203125 308.6953125 C-39.875 308.5 -39.875 308.5 -42.875 306.5 C-44.83576302 305.89782488 -44.83576302 305.89782488 -46.875 305.5 C-62.57157148 301.98180294 -78.63832462 293.9885789 -90.875 283.5 C-91.679375 282.860625 -92.48375 282.22125 -93.3125 281.5625 C-94.158125 280.881875 -95.00375 280.20125 -95.875 279.5 C-96.39578125 279.09652344 -96.9165625 278.69304687 -97.453125 278.27734375 C-100.49418413 275.8636876 -102.1677641 273.9144718 -103.875 270.5 C-105.51642963 269.4590934 -107.18212215 268.45495674 -108.875 267.5 C-109.205 266.84 -109.535 266.18 -109.875 265.5 C-110.91599649 264.5995237 -111.98259916 263.72843157 -113.0625 262.875 C-117.04928839 259.52284323 -119.87011402 255.72134116 -122.875 251.5 C-123.34550781 250.90703125 -123.81601562 250.3140625 -124.30078125 249.703125 C-132.73224008 239.06721467 -139.44384719 226.25769924 -143.875 213.4375 C-144.12991211 212.7057959 -144.38482422 211.9740918 -144.64746094 211.22021484 C-157.73187044 172.98172932 -157.8974828 129.69902077 -140.875 92.5 C-138.87050887 88.43881744 -136.7238283 84.46288757 -134.51171875 80.51171875 C-132.80399543 77.57888964 -132.80399543 77.57888964 -131.875 74.5 C-131.215 74.5 -130.555 74.5 -129.875 74.5 C-129.565625 73.51 -129.565625 73.51 -129.25 72.5 C-127.35564598 68.36686395 -124.65097256 65.07673387 -121.875 61.5 C-121.47958008 60.94135254 -121.08416016 60.38270508 -120.67675781 59.80712891 C-116.37203118 53.81093691 -111.36002305 48.68721462 -106.125 43.5 C-104.83142578 42.19482422 -104.83142578 42.19482422 -103.51171875 40.86328125 C-102.68800781 40.04214844 -101.86429688 39.22101563 -101.015625 38.375 C-100.26829102 37.62992188 -99.52095703 36.88484375 -98.75097656 36.1171875 C-96.875 34.5 -96.875 34.5 -94.875 34.5 C-94.875 33.84 -94.875 33.18 -94.875 32.5 C-94.29492188 32.19707031 -93.71484375 31.89414063 -93.1171875 31.58203125 C-89.38435449 29.58009936 -86.07441563 27.66685797 -82.8125 24.9375 C-80.09739173 22.68453782 -77.508214 21.1559917 -74.32421875 19.6640625 C-72.43086326 18.7641902 -70.56289824 17.81078255 -68.70703125 16.8359375 C-61.92040495 13.29574398 -55.42285395 10.47407968 -48.0078125 8.421875 C-44.74457647 7.5143329 -44.74457647 7.5143329 -41.1796875 6.02734375 C-28.37484188 1.15986271 -13.57624807 0.13111483 0 0 Z M-6.875 61.5 C-6.875 61.83 -6.875 62.16 -6.875 62.5 C-2.915 62.5 1.045 62.5 5.125 62.5 C5.125 62.17 5.125 61.84 5.125 61.5 C1.165 61.5 -2.795 61.5 -6.875 61.5 Z M-85.875 121.5 C-84.875 124.5 -84.875 124.5 -84.875 124.5 Z M-86.875 124.5 C-85.875 126.5 -85.875 126.5 -85.875 126.5 Z M-90.875 137.5 C-90.875 139.15 -90.875 140.8 -90.875 142.5 C-90.545 142.5 -90.215 142.5 -89.875 142.5 C-89.875 140.85 -89.875 139.2 -89.875 137.5 C-90.205 137.5 -90.535 137.5 -90.875 137.5 Z M-91.875 142.5 C-91.875 144.15 -91.875 145.8 -91.875 147.5 C-91.545 147.5 -91.215 147.5 -90.875 147.5 C-90.875 145.85 -90.875 144.2 -90.875 142.5 C-91.205 142.5 -91.535 142.5 -91.875 142.5 Z M-92.875 155.5 C-92.875 157.48 -92.875 159.46 -92.875 161.5 C-92.545 161.5 -92.215 161.5 -91.875 161.5 C-91.875 159.52 -91.875 157.54 -91.875 155.5 C-92.205 155.5 -92.535 155.5 -92.875 155.5 Z M-88.875 180.5 C-87.875 183.5 -87.875 183.5 -87.875 183.5 Z M-87.875 183.5 C-86.875 186.5 -86.875 186.5 -86.875 186.5 Z M-85.875 189.5 C-84.875 191.5 -84.875 191.5 -84.875 191.5 Z M142.125 207.5 C142.125 213.77 142.125 220.04 142.125 226.5 C142.455 226.5 142.785 226.5 143.125 226.5 C143.125 220.23 143.125 213.96 143.125 207.5 C142.795 207.5 142.465 207.5 142.125 207.5 Z M141.125 226.5 C142.125 228.5 142.125 228.5 142.125 228.5 Z M-12.875 311.5 C-12.875 311.83 -12.875 312.16 -12.875 312.5 C-2.975 312.5 6.925 312.5 17.125 312.5 C17.125 312.17 17.125 311.84 17.125 311.5 C7.225 311.5 -2.675 311.5 -12.875 311.5 Z " fill="#2582C1" transform="translate(654.875,135.5)"/>
<path d="M0 0 C0.96679688 -0.01828857 1.93359375 -0.03657715 2.9296875 -0.05541992 C10.88169736 0.01291766 17.56655964 1.80791995 23.96484375 6.6484375 C25.00318359 7.75058594 25.00318359 7.75058594 26.0625 8.875 C27.12791016 9.96941406 27.12791016 9.96941406 28.21484375 11.0859375 C32.67924712 16.72806691 33.6550226 21.32595085 33.5625 28.3125 C33.55420166 29.11349121 33.54590332 29.91448242 33.53735352 30.73974609 C33.24212483 41.05488934 29.36331658 47.29436205 22.125 54.5 C18.94975522 57.37284052 16.17539019 59.11129479 12.125 60.5 C12.125 61.16 12.125 61.82 12.125 62.5 C9.08441144 63.51352952 7.30481443 63.55378048 4.14453125 63.421875 C-8.55965874 63.04187484 -19.15297848 63.4741648 -30.875 68.5 C-31.9280835 68.9340918 -31.9280835 68.9340918 -33.00244141 69.37695312 C-42.98739352 73.54343148 -51.6302859 78.41910141 -59.875 85.5 C-60.64972656 86.16257812 -61.42445313 86.82515625 -62.22265625 87.5078125 C-70.99626858 95.64700136 -79.54126787 107.24160339 -83.875 118.5 C-83.95405064 120.83199388 -83.96298769 123.16832622 -83.875 125.5 C-84.875 128.4375 -84.875 128.4375 -85.875 130.5 C-86.535 130.5 -87.195 130.5 -87.875 130.5 C-88.99821212 137.29543335 -89.22267961 144.06312293 -89.48046875 150.9375 C-89.53654297 152.28714844 -89.53654297 152.28714844 -89.59375 153.6640625 C-89.62404297 154.47311035 -89.65433594 155.2821582 -89.68554688 156.11572266 C-89.88595129 158.63782253 -90.33296483 161.0306677 -90.875 163.5 C-91.535 163.17 -92.195 162.84 -92.875 162.5 C-93.205 156.89 -93.535 151.28 -93.875 145.5 C-94.535 145.5 -95.195 145.5 -95.875 145.5 C-97.13671875 143.7421875 -97.13671875 143.7421875 -98.5625 141.375 C-102.53662731 135.21994916 -106.85231797 130.8793266 -113.875 128.5 C-123.05544149 126.79839351 -130.7630371 127.59902242 -138.875 132.5 C-144.35656021 136.53518295 -147.74824599 139.98681584 -149.875 146.5 C-150.535 146.5 -151.195 146.5 -151.875 146.5 C-152.205 149.47 -152.535 152.44 -152.875 155.5 C-153.205 155.5 -153.535 155.5 -153.875 155.5 C-154.99912821 129.52014806 -147.10559559 103.00632507 -134.51171875 80.51171875 C-132.80399543 77.57888964 -132.80399543 77.57888964 -131.875 74.5 C-131.215 74.5 -130.555 74.5 -129.875 74.5 C-129.565625 73.51 -129.565625 73.51 -129.25 72.5 C-127.35564598 68.36686395 -124.65097256 65.07673387 -121.875 61.5 C-121.47958008 60.94135254 -121.08416016 60.38270508 -120.67675781 59.80712891 C-116.37203118 53.81093691 -111.36002305 48.68721462 -106.125 43.5 C-104.83142578 42.19482422 -104.83142578 42.19482422 -103.51171875 40.86328125 C-102.68800781 40.04214844 -101.86429688 39.22101563 -101.015625 38.375 C-100.26829102 37.62992188 -99.52095703 36.88484375 -98.75097656 36.1171875 C-96.875 34.5 -96.875 34.5 -94.875 34.5 C-94.875 33.84 -94.875 33.18 -94.875 32.5 C-94.29492188 32.19707031 -93.71484375 31.89414063 -93.1171875 31.58203125 C-89.38435449 29.58009936 -86.07441563 27.66685797 -82.8125 24.9375 C-80.09739173 22.68453782 -77.508214 21.1559917 -74.32421875 19.6640625 C-72.43086326 18.7641902 -70.56289824 17.81078255 -68.70703125 16.8359375 C-61.92040495 13.29574398 -55.42285395 10.47407968 -48.0078125 8.421875 C-44.74457647 7.5143329 -44.74457647 7.5143329 -41.1796875 6.02734375 C-28.37484188 1.15986271 -13.57624807 0.13111483 0 0 Z M-6.875 61.5 C-6.875 61.83 -6.875 62.16 -6.875 62.5 C-2.915 62.5 1.045 62.5 5.125 62.5 C5.125 62.17 5.125 61.84 5.125 61.5 C1.165 61.5 -2.795 61.5 -6.875 61.5 Z M-85.875 121.5 C-84.875 124.5 -84.875 124.5 -84.875 124.5 Z M-86.875 124.5 C-85.875 126.5 -85.875 126.5 -85.875 126.5 Z M-90.875 137.5 C-90.875 139.15 -90.875 140.8 -90.875 142.5 C-90.545 142.5 -90.215 142.5 -89.875 142.5 C-89.875 140.85 -89.875 139.2 -89.875 137.5 C-90.205 137.5 -90.535 137.5 -90.875 137.5 Z M-91.875 142.5 C-91.875 144.15 -91.875 145.8 -91.875 147.5 C-91.545 147.5 -91.215 147.5 -90.875 147.5 C-90.875 145.85 -90.875 144.2 -90.875 142.5 C-91.205 142.5 -91.535 142.5 -91.875 142.5 Z " fill="#36D7E3" transform="translate(654.875,135.5)"/>
<path d="M0 0 C1.1938179 -0.00145523 2.3876358 -0.00291046 3.61763 -0.00440979 C6.12800552 -0.00275728 8.63839184 0.00873082 11.14868164 0.02954102 C14.98692821 0.05858351 18.82379927 0.05011727 22.66210938 0.03710938 C25.10807961 0.04334488 27.55404551 0.05173435 30 0.0625 C31.14385666 0.05956436 32.28771332 0.05662872 33.4662323 0.05360413 C43.67510115 0.17443873 43.67510115 0.17443873 48.30078125 3.49609375 C51.91823171 10.13571802 51.75426317 16.69147169 51.67578125 24.12109375 C51.68738281 25.22710938 51.69898438 26.333125 51.7109375 27.47265625 C51.67387997 37.74994544 51.67387997 37.74994544 48.30078125 42.49609375 C45.36328125 44.24609375 45.36328125 44.24609375 42.30078125 45.49609375 C41.74737061 45.84712158 41.19395996 46.19814941 40.6237793 46.55981445 C37.16751992 47.95285226 33.73890899 47.76108085 30.0703125 47.7265625 C29.27928635 47.72610428 28.48826019 47.72564606 27.67326355 47.72517395 C26.00652561 47.72215962 24.33979029 47.71429787 22.6730957 47.7019043 C20.1120414 47.68358488 17.55134752 47.68139514 14.99023438 47.68164062 C13.3710906 47.67672755 11.75194929 47.67090015 10.1328125 47.6640625 C9.36306595 47.66294968 8.5933194 47.66183685 7.80024719 47.66069031 C2.41685114 47.61216364 2.41685114 47.61216364 1.30078125 46.49609375 C1.21392522 44.9343663 1.19375906 43.36880031 1.203125 41.8046875 C1.20562256 40.95447021 1.20812012 40.10425293 1.21069336 39.22827148 C1.21979736 38.14102783 1.22890137 37.05378418 1.23828125 35.93359375 C1.25890625 32.48921875 1.27953125 29.04484375 1.30078125 25.49609375 C11.20078125 25.49609375 21.10078125 25.49609375 31.30078125 25.49609375 C30.80578125 23.51609375 30.80578125 23.51609375 30.30078125 21.49609375 C12.97578125 21.00109375 12.97578125 21.00109375 -4.69921875 20.49609375 C-4.03921875 20.82609375 -3.37921875 21.15609375 -2.69921875 21.49609375 C-2.69921875 31.06609375 -2.69921875 40.63609375 -2.69921875 50.49609375 C10.83078125 50.49609375 24.36078125 50.49609375 38.30078125 50.49609375 C37.57821921 55.55402802 36.77490595 59.60149881 35.23828125 64.37109375 C33.91899505 67.85648723 33.91899505 67.85648723 33.30078125 71.49609375 C26.30847212 71.64860543 19.316594 71.75346057 12.32299805 71.82568359 C9.94555635 71.85580034 7.56822525 71.89670307 5.19116211 71.94873047 C1.76778846 72.02176626 -1.65411265 72.05560262 -5.078125 72.08203125 C-6.13568497 72.11299896 -7.19324493 72.14396667 -8.28285217 72.1758728 C-13.30398505 72.17814715 -16.82769202 71.97459251 -20.86743164 68.81103516 C-23.64607637 65.97976765 -24.58364886 63.91501522 -24.62890625 59.87109375 C-24.65694336 58.82566406 -24.68498047 57.78023437 -24.71386719 56.703125 C-24.7090332 55.64480469 -24.70419922 54.58648438 -24.69921875 53.49609375 C-24.73450684 52.01689453 -24.73450684 52.01689453 -24.77050781 50.5078125 C-24.83320436 47.50235903 -24.83808796 44.50212609 -24.82421875 41.49609375 C-24.82083496 40.42464111 -24.81745117 39.35318848 -24.81396484 38.24926758 C-24.76920542 31.22255827 -24.62610392 24.20405747 -24.32421875 17.18359375 C-24.29344238 16.36052734 -24.26266602 15.53746094 -24.23095703 14.68945312 C-24.03277076 10.80467332 -23.80909302 7.79199469 -21.69921875 4.49609375 C-15.21255047 -0.21776893 -7.68799542 -0.07590788 0 0 Z M8.30078125 45.49609375 C8.30078125 45.82609375 8.30078125 46.15609375 8.30078125 46.49609375 C9.95078125 46.49609375 11.60078125 46.49609375 13.30078125 46.49609375 C13.30078125 46.16609375 13.30078125 45.83609375 13.30078125 45.49609375 C11.65078125 45.49609375 10.00078125 45.49609375 8.30078125 45.49609375 Z M23.30078125 45.49609375 C23.30078125 45.82609375 23.30078125 46.15609375 23.30078125 46.49609375 C27.26078125 46.49609375 31.22078125 46.49609375 35.30078125 46.49609375 C35.30078125 46.16609375 35.30078125 45.83609375 35.30078125 45.49609375 C31.34078125 45.49609375 27.38078125 45.49609375 23.30078125 45.49609375 Z " fill="#3C3C3E" transform="translate(452.69921875,505.50390625)"/>
<path d="M0 0 C6.6 0 13.2 0 20 0 C20 24.42 20 48.84 20 74 C31.55 74 43.1 74 55 74 C54.67 64.76 54.34 55.52 54 46 C49.42125 45.484375 44.8425 44.96875 40.125 44.4375 C38.68141113 44.2717749 37.23782227 44.1060498 35.75048828 43.93530273 C34.61853027 43.81098877 33.48657227 43.6866748 32.3203125 43.55859375 C31.15773926 43.42767334 29.99516602 43.29675293 28.79736328 43.16186523 C26.04564816 42.76961965 26.04564816 42.76961965 24 44 C24.66 41.03 25.32 38.06 26 35 C26.66 35 27.32 35 28 35 C28.12375 33.741875 28.2475 32.48375 28.375 31.1875 C28.69868059 27.89674737 29.06604999 26.90092502 31 24 C33.47337484 23.69473989 35.69258465 23.5797625 38.16796875 23.6015625 C39.23752556 23.59725723 39.23752556 23.59725723 40.32868958 23.59286499 C41.8409606 23.59082142 43.35325789 23.59637179 44.86547852 23.60888672 C47.16158663 23.62482018 49.45590282 23.6091113 51.75195312 23.58984375 C53.22396218 23.59182844 54.69597013 23.59567678 56.16796875 23.6015625 C57.18711617 23.59245346 57.18711617 23.59245346 58.22685242 23.5831604 C63.21922023 23.65538036 66.59879783 24.84347875 71 27 C71 27.66 71 28.32 71 29 C71.66 29.33 72.32 29.66 73 30 C74.07337604 33.0385065 74.13684318 35.94724551 74.16113281 39.14819336 C74.17074036 40.17283188 74.1803479 41.1974704 74.19024658 42.25315857 C74.19449646 43.35426468 74.19874634 44.45537079 74.203125 45.58984375 C74.20882507 46.72651993 74.21452515 47.86319611 74.22039795 49.03431702 C74.22983986 51.43750072 74.23637872 53.84069733 74.24023438 56.24389648 C74.2499537 59.91998803 74.28099106 63.59552368 74.3125 67.27148438 C74.31902893 69.60676751 74.32427983 71.94205465 74.328125 74.27734375 C74.3404718 75.37642563 74.3528186 76.47550751 74.36553955 77.6078949 C74.36253845 78.63568558 74.35953735 79.66347626 74.35644531 80.72241211 C74.36191376 82.07332191 74.36191376 82.07332191 74.36749268 83.45152283 C73.91037115 86.62155549 72.92116549 88.44787414 71 91 C67.81925362 93.2645059 64.9691487 93.25291413 61.13330078 93.25878906 C59.95172394 93.26509338 58.77014709 93.27139771 57.55276489 93.27789307 C55.64332596 93.27182037 55.64332596 93.27182037 53.6953125 93.265625 C51.7275032 93.26849518 51.7275032 93.26849518 49.71994019 93.27142334 C46.94426763 93.27436913 44.16872396 93.27009598 41.39306641 93.26074219 C37.84681446 93.24937014 34.30086604 93.25589609 30.75462532 93.26788712 C27.35983055 93.27688339 23.96511587 93.27056933 20.5703125 93.265625 C19.30140167 93.26967346 18.03249084 93.27372192 16.72512817 93.27789307 C14.94330643 93.26843658 14.94330643 93.26843658 13.12548828 93.25878906 C12.08498322 93.25719788 11.04447815 93.25560669 9.97244263 93.25396729 C6.01727219 92.91603514 2.31252253 92.55490258 -0.3598175 89.3890686 C-1.30512125 85.86133156 -1.26911702 82.39848209 -1.24291992 78.77490234 C-1.24481827 77.94847733 -1.24671661 77.12205231 -1.24867249 76.27058411 C-1.25237361 73.54227171 -1.24168685 70.81422619 -1.23046875 68.0859375 C-1.22927663 66.19072501 -1.22882386 64.29551192 -1.2290802 62.40029907 C-1.22751657 58.43089086 -1.21923487 54.46157299 -1.20581055 50.4921875 C-1.18879775 45.3963955 -1.18499694 40.30070256 -1.18575573 35.20488548 C-1.18548426 31.29307097 -1.18000718 27.38127825 -1.17275429 23.46947098 C-1.16956588 21.58993317 -1.16759981 19.71039288 -1.16686058 17.83085251 C-1.16470015 15.20929475 -1.15596303 12.58784357 -1.14526367 9.96630859 C-1.14571686 9.18497055 -1.14617004 8.40363251 -1.14663696 7.59861755 C-1.11447968 2.22895937 -1.11447968 2.22895937 0 0 Z M18 1 C18 24.1 18 47.2 18 71 C18.33 71 18.66 71 19 71 C19 47.9 19 24.8 19 1 C18.67 1 18.34 1 18 1 Z M43 43 C43 43.33 43 43.66 43 44 C45.97 44 48.94 44 52 44 C52 43.67 52 43.34 52 43 C49.03 43 46.06 43 43 43 Z " fill="#38383A" transform="translate(1014,482)"/>
<path d="M0 0 C1.62220963 -0.00956978 1.62220963 -0.00956978 3.27719116 -0.01933289 C4.44078156 -0.02044571 5.60437195 -0.02155853 6.80322266 -0.02270508 C8.0041153 -0.02603348 9.20500793 -0.02936188 10.44229126 -0.03279114 C12.9825197 -0.03785357 15.5227548 -0.04019967 18.06298828 -0.04003906 C21.94526148 -0.04222393 25.82724979 -0.0603828 29.70947266 -0.0793457 C32.17822168 -0.08228009 34.64697206 -0.08426458 37.11572266 -0.08520508 C38.27526459 -0.09239059 39.43480652 -0.09957611 40.62948608 -0.10697937 C51.25263827 -0.07693324 51.25263827 -0.07693324 55.59228516 2.14526367 C56.96728516 5.27026367 56.96728516 5.27026367 57.59228516 8.14526367 C58.25228516 7.81526367 58.91228516 7.48526367 59.59228516 7.14526367 C59.51099834 11.50017093 59.39818655 15.85371987 59.27978516 20.20776367 C59.25722656 21.43688477 59.23466797 22.66600586 59.21142578 23.93237305 C58.86511089 35.61262969 58.86511089 35.61262969 55.59228516 41.14526367 C52.65478516 43.45776367 52.65478516 43.45776367 49.59228516 45.14526367 C49.0329126 45.50458984 48.47354004 45.86391602 47.8972168 46.23413086 C44.53018279 47.56510967 41.21777345 47.43052148 37.65087891 47.41088867 C36.88679214 47.41280212 36.12270538 47.41471558 35.33546448 47.41668701 C33.72420929 47.41804508 32.11294301 47.41437507 30.50170898 47.40600586 C28.03490687 47.39528593 25.56883054 47.4059212 23.10205078 47.41870117 C21.53499188 47.4173798 19.96793344 47.41481786 18.40087891 47.41088867 C17.2945536 47.41696136 17.2945536 47.41696136 16.1658783 47.42315674 C12.42939238 47.38889789 10.78211594 47.27181752 7.59228516 45.14526367 C7.2199707 43.29760742 7.2199707 43.29760742 7.22900391 41.08276367 C7.22964844 40.28612305 7.23029297 39.48948242 7.23095703 38.66870117 C7.24707031 37.8359668 7.26318359 37.00323242 7.27978516 36.14526367 C7.27495117 34.89616211 7.27495117 34.89616211 7.27001953 33.62182617 C7.32528261 27.41226622 7.32528261 27.41226622 9.59228516 25.14526367 C12.48144531 24.91821289 12.48144531 24.91821289 16.13134766 24.94995117 C18.08427734 24.95961914 18.08427734 24.95961914 20.07666016 24.96948242 C21.45687111 24.98619438 22.83707944 25.00312429 24.21728516 25.02026367 C25.60529968 25.03029361 26.99332105 25.03941944 28.38134766 25.04760742 C31.78516542 25.07124505 35.18864022 25.104195 38.59228516 25.14526367 C38.09728516 23.16526367 38.09728516 23.16526367 37.59228516 21.14526367 C20.26728516 20.65026367 20.26728516 20.65026367 2.59228516 20.14526367 C3.58228516 20.80526367 4.57228516 21.46526367 5.59228516 22.14526367 C5.84106445 24.94262695 5.84106445 24.94262695 5.66650391 28.46557617 C5.61840576 29.59753418 5.57030762 30.72949219 5.52075195 31.89575195 C5.44123291 33.33934082 5.36171387 34.78292969 5.27978516 36.27026367 C5.05291016 40.84901367 4.82603516 45.42776367 4.59228516 50.14526367 C18.45228516 50.14526367 32.31228516 50.14526367 46.59228516 50.14526367 C44.61228516 56.41526367 42.63228516 62.68526367 40.59228516 69.14526367 C23.10228516 69.14526367 5.61228516 69.14526367 -12.40771484 69.14526367 C-16.90827299 61.26928692 -16.90827299 61.26928692 -16.89355469 56.76416016 C-16.89970795 55.76299667 -16.90586121 54.76183319 -16.91220093 53.73033142 C-16.8978299 52.66972 -16.88345886 51.60910858 -16.86865234 50.51635742 C-16.8677359 49.4084938 -16.86681946 48.30063019 -16.86587524 47.15919495 C-16.8598523 44.8251617 -16.84414591 42.49113571 -16.81933594 40.15722656 C-16.78280024 36.5910993 -16.77831713 33.02601185 -16.77880859 29.4597168 C-16.7689775 27.18692139 -16.75732053 24.91413299 -16.74365234 22.64135742 C-16.7414267 21.57872177 -16.73920105 20.51608612 -16.73690796 19.42124939 C-16.67177047 14.32646436 -16.59561693 9.85318551 -14.40771484 5.14526367 C-9.82631443 0.68442643 -6.2114713 0.02492068 0 0 Z M11.59228516 45.14526367 C11.59228516 45.47526367 11.59228516 45.80526367 11.59228516 46.14526367 C14.23228516 46.14526367 16.87228516 46.14526367 19.59228516 46.14526367 C19.59228516 45.81526367 19.59228516 45.48526367 19.59228516 45.14526367 C16.95228516 45.14526367 14.31228516 45.14526367 11.59228516 45.14526367 Z M28.59228516 45.14526367 C28.59228516 45.47526367 28.59228516 45.80526367 28.59228516 46.14526367 C33.21228516 46.14526367 37.83228516 46.14526367 42.59228516 46.14526367 C42.59228516 45.81526367 42.59228516 45.48526367 42.59228516 45.14526367 C37.97228516 45.14526367 33.35228516 45.14526367 28.59228516 45.14526367 Z " fill="#393A3C" transform="translate(532.40771484375,505.854736328125)"/>
<path d="M0 0 C1.15510071 -0.01606293 2.31020142 -0.03212585 3.50030518 -0.04867554 C8.77576073 -0.09327573 14.05106998 -0.13461616 19.32666016 -0.15722656 C22.1066185 -0.17054918 24.8858399 -0.19837645 27.66552734 -0.23925781 C31.68046288 -0.29828843 35.69461379 -0.31591323 39.70996094 -0.33056641 C40.94667542 -0.35323578 42.18338989 -0.37590515 43.45758057 -0.39926147 C55.15255557 -0.37071746 55.15255557 -0.37071746 59.91229248 3.20550537 C63.13147821 7.96377432 62.07551646 14.1811423 61.81933594 19.68115234 C61.78195181 21.10881391 61.74814897 22.53657337 61.71777344 23.96440125 C61.62843913 27.71273113 61.49064959 31.45775421 61.34259033 35.2041626 C61.19998463 39.03096891 61.10341707 42.85890891 61.00292969 46.68701172 C60.79918458 54.19082661 60.54421823 61.69174416 60.25683594 69.19287109 C59.04125 69.18126953 57.82566406 69.16966797 56.57324219 69.15771484 C54.9886083 69.14833831 53.40397276 69.13923797 51.81933594 69.13037109 C51.01689453 69.12199219 50.21445312 69.11361328 49.38769531 69.10498047 C47.34388373 69.09635679 45.29999692 69.14058959 43.25683594 69.19287109 C42.92683594 69.52287109 42.59683594 69.85287109 42.25683594 70.19287109 C48.52683594 70.19287109 54.79683594 70.19287109 61.25683594 70.19287109 C61.25683594 50.72287109 61.25683594 31.25287109 61.25683594 11.19287109 C61.58683594 11.19287109 61.91683594 11.19287109 62.25683594 11.19287109 C62.25683594 30.99287109 62.25683594 50.79287109 62.25683594 71.19287109 C55.32683594 71.19287109 48.39683594 71.19287109 41.25683594 71.19287109 C40.25683594 70.19287109 40.25683594 70.19287109 40.13658142 68.25035095 C40.13880203 67.39985672 40.14102264 66.54936249 40.14331055 65.6730957 C40.14338608 64.71217514 40.14346161 63.75125458 40.14353943 62.76121521 C40.14870071 61.71643509 40.153862 60.67165497 40.15917969 59.59521484 C40.16059464 58.53121964 40.16200958 57.46722443 40.16346741 56.37098694 C40.1690853 52.95742026 40.18164083 49.5439181 40.19433594 46.13037109 C40.19934863 43.82242933 40.20391194 41.51448654 40.20800781 39.20654297 C40.21821161 33.53527389 40.23778351 27.86414509 40.25683594 22.19287109 C29.36683594 22.19287109 18.47683594 22.19287109 7.25683594 22.19287109 C7.25683594 31.43287109 7.25683594 40.67287109 7.25683594 50.19287109 C16.82683594 50.19287109 26.39683594 50.19287109 36.25683594 50.19287109 C35.92683594 51.51287109 35.59683594 52.83287109 35.25683594 54.19287109 C35.58683594 55.18287109 35.91683594 56.17287109 36.25683594 57.19287109 C35.47949219 60.11083984 35.47949219 60.11083984 34.31933594 63.38037109 C33.9390625 64.46705078 33.55878906 65.55373047 33.16699219 66.67333984 C32.86664063 67.50478516 32.56628906 68.33623047 32.25683594 69.19287109 C31.26683594 69.19287109 30.27683594 69.19287109 29.25683594 69.19287109 C29.58683594 69.85287109 29.91683594 70.51287109 30.25683594 71.19287109 C24.93663572 71.26717024 19.61673924 71.32154356 14.29614258 71.35766602 C12.48716977 71.37272864 10.67823334 71.39318286 8.86938477 71.41918945 C6.26537079 71.45568429 3.66184074 71.47262266 1.05761719 71.48583984 C0.25222 71.5013237 -0.55317719 71.51680756 -1.38298035 71.53276062 C-5.94768799 71.53412085 -9.1953202 71.37843369 -12.74316406 68.19287109 C-16.35592011 62.20927473 -16.18083018 56.4153439 -16.14160156 49.56396484 C-16.14447174 48.45610123 -16.14734192 47.34823761 -16.15029907 46.20680237 C-16.15233409 43.87280768 -16.14684371 41.53879573 -16.13427734 39.20483398 C-16.1182012 35.6386089 -16.13415385 32.07351451 -16.15332031 28.50732422 C-16.15133808 26.23453527 -16.14749482 23.96174702 -16.14160156 21.68896484 C-16.14767426 20.62632919 -16.15374695 19.56369354 -16.16000366 18.46885681 C-16.09896993 12.02752266 -15.42434093 7.57348541 -11.30566406 2.38037109 C-7.96934072 -0.15523465 -4.04852791 0.0512904 0 0 Z M59.25683594 7.19287109 C60.25683594 10.19287109 60.25683594 10.19287109 60.25683594 10.19287109 Z M5.25683594 20.19287109 C5.25683594 20.52287109 5.25683594 20.85287109 5.25683594 21.19287109 C13.50683594 21.19287109 21.75683594 21.19287109 30.25683594 21.19287109 C30.25683594 20.86287109 30.25683594 20.53287109 30.25683594 20.19287109 C22.00683594 20.19287109 13.75683594 20.19287109 5.25683594 20.19287109 Z M33.25683594 55.19287109 C34.25683594 59.19287109 34.25683594 59.19287109 34.25683594 59.19287109 Z M32.25683594 60.19287109 C33.25683594 62.19287109 33.25683594 62.19287109 33.25683594 62.19287109 Z M31.25683594 62.19287109 C32.25683594 64.19287109 32.25683594 64.19287109 32.25683594 64.19287109 Z " fill="#3B3C3E" transform="translate(300.7431640625,505.80712890625)"/>
<path d="M0 0 C1.71703125 -0.00956978 1.71703125 -0.00956978 3.46875 -0.01933289 C5.30953125 -0.02100212 5.30953125 -0.02100212 7.1875 -0.02270508 C9.09015625 -0.02769768 9.09015625 -0.02769768 11.03125 -0.03279114 C13.71097327 -0.03784982 16.39059506 -0.04063282 19.0703125 -0.04003906 C22.49666727 -0.03993733 25.92281534 -0.05360897 29.34912109 -0.07081127 C32.62857294 -0.08462664 35.908023 -0.08402037 39.1875 -0.08520508 C41.02828125 -0.09598335 41.02828125 -0.09598335 42.90625 -0.10697937 C44.62328125 -0.10236443 44.62328125 -0.10236443 46.375 -0.09765625 C47.88126953 -0.09979378 47.88126953 -0.09979378 49.41796875 -0.10197449 C53.12822141 0.22924259 56.00285187 1.21446872 58.9375 3.52026367 C61.62385752 7.01252845 61.30966556 11.03980655 61.30102539 15.29077148 C61.30091209 17.15224823 61.30091209 17.15224823 61.30079651 19.05133057 C61.29569031 20.40035035 61.29047432 21.74936971 61.28515625 23.09838867 C61.28329024 24.48272653 61.2818672 25.86706505 61.28086853 27.25140381 C61.27705773 30.88787675 61.26723975 34.5243095 61.25616455 38.1607666 C61.2459195 41.87434343 61.24136429 45.58792677 61.23632812 49.30151367 C61.22561616 56.58278196 61.20855704 63.86401717 61.1875 71.14526367 C57.70835059 71.17414181 54.22923169 71.19202054 50.75 71.20776367 C49.26016602 71.22033203 49.26016602 71.22033203 47.74023438 71.2331543 C46.32387695 71.23798828 46.32387695 71.23798828 44.87890625 71.24291992 C44.00435791 71.24815674 43.12980957 71.25339355 42.22875977 71.25878906 C40.1875 71.14526367 40.1875 71.14526367 39.1875 70.14526367 C39.09438111 68.64107628 39.07003972 67.13255011 39.07397461 65.62548828 C39.07405014 64.66456772 39.07412567 63.70364716 39.07420349 62.71360779 C39.07936478 61.66882767 39.08452606 60.62404755 39.08984375 59.54760742 C39.0912587 58.48361221 39.09267365 57.419617 39.09413147 56.32337952 C39.09974936 52.90981284 39.11230489 49.49631068 39.125 46.08276367 C39.13001269 43.77482191 39.134576 41.46687912 39.13867188 39.15893555 C39.14887567 33.48766646 39.16844757 27.81653767 39.1875 22.14526367 C28.2975 22.14526367 17.4075 22.14526367 6.1875 22.14526367 C6.1875 31.38526367 6.1875 40.62526367 6.1875 50.14526367 C15.7575 50.14526367 25.3275 50.14526367 35.1875 50.14526367 C34.218125 53.09463867 33.24875 56.04401367 32.25 59.08276367 C31.94586182 60.01338623 31.64172363 60.94400879 31.32836914 61.90283203 C30.96666626 62.99543335 30.96666626 62.99543335 30.59765625 64.11010742 C30.35152588 64.85897217 30.10539551 65.60783691 29.85180664 66.37939453 C29.1875 68.14526367 29.1875 68.14526367 28.1875 69.14526367 C25.1811175 69.25883091 22.19857558 69.30945279 19.19140625 69.31323242 C17.83558693 69.31822502 17.83558693 69.31822502 16.45237732 69.32331848 C14.53653473 69.32839163 12.62068328 69.33072669 10.70483398 69.33056641 C7.76596582 69.3327518 4.82747348 69.35090032 1.88867188 69.36987305 C0.03125129 69.37280704 -1.82617109 69.3747918 -3.68359375 69.37573242 C-4.56695908 69.38291794 -5.4503244 69.39010345 -6.36045837 69.39750671 C-12.58367861 69.37408507 -12.58367861 69.37408507 -14.8125 67.14526367 C-17.33278355 61.5951888 -17.11864158 56.09584213 -17.11328125 50.12182617 C-17.11756638 49.06168304 -17.1218515 48.00153992 -17.12626648 46.90927124 C-17.13199646 44.6718619 -17.13251988 42.43443394 -17.12817383 40.19702148 C-17.12501718 36.78881765 -17.14847905 33.38148512 -17.17382812 29.97338867 C-17.1761017 27.79370226 -17.17680434 25.61401353 -17.17578125 23.43432617 C-17.184991 22.4226236 -17.19420074 21.41092102 -17.20368958 20.36856079 C-17.16133507 13.83364089 -16.70256819 7.8488859 -12.52095032 2.49014282 C-8.92235246 -0.34264616 -4.39965194 0.01670078 0 0 Z M58.1875 8.14526367 C59.1875 10.14526367 59.1875 10.14526367 59.1875 10.14526367 Z M59.1875 10.14526367 C59.1875 29.61526367 59.1875 49.08526367 59.1875 69.14526367 C53.2475 68.81526367 47.3075 68.48526367 41.1875 68.14526367 C41.1875 68.80526367 41.1875 69.46526367 41.1875 70.14526367 C47.4575 70.14526367 53.7275 70.14526367 60.1875 70.14526367 C60.1875 50.34526367 60.1875 30.54526367 60.1875 10.14526367 C59.8575 10.14526367 59.5275 10.14526367 59.1875 10.14526367 Z M6.1875 20.14526367 C6.1875 20.47526367 6.1875 20.80526367 6.1875 21.14526367 C16.4175 21.14526367 26.6475 21.14526367 37.1875 21.14526367 C37.1875 20.81526367 37.1875 20.48526367 37.1875 20.14526367 C26.9575 20.14526367 16.7275 20.14526367 6.1875 20.14526367 Z M-11.8125 66.14526367 C-11.8125 66.80526367 -11.8125 67.46526367 -11.8125 68.14526367 C-11.1525 67.81526367 -10.4925 67.48526367 -9.8125 67.14526367 C-10.4725 66.81526367 -11.1325 66.48526367 -11.8125 66.14526367 Z " fill="#303032" transform="translate(941.8125,505.854736328125)"/>
<path d="M0 0 C1.17349503 -0.00428513 2.34699005 -0.00857025 3.55604553 -0.01298523 C6.03304399 -0.01871771 8.51005927 -0.01923678 10.98706055 -0.01489258 C14.76835954 -0.01173279 18.54887577 -0.035206 22.33007812 -0.06054688 C24.74088443 -0.06282004 27.15169284 -0.06352328 29.5625 -0.0625 C30.68873276 -0.07170975 31.81496552 -0.08091949 32.97532654 -0.09040833 C39.89595813 -0.04978816 45.70210571 0.15523071 50.84765625 5.30078125 C52.27835371 10.95055305 52.02720582 16.82244157 52.05078125 22.61328125 C52.05648132 23.70036377 52.0621814 24.78744629 52.0680542 25.9074707 C52.07747687 28.20034825 52.08402728 30.49323916 52.08789062 32.78613281 C52.09762254 36.28865062 52.12868301 39.79058781 52.16015625 43.29296875 C52.16668446 45.52473611 52.17193565 47.75650765 52.17578125 49.98828125 C52.18812805 51.03218018 52.20047485 52.0760791 52.2131958 53.15161133 C52.19666042 58.55790245 52.10957767 62.74035357 48.84765625 67.30078125 C45.49619432 69.50553413 42.62893872 69.56385363 38.67382812 69.59130859 C37.42573364 69.6040683 36.17763916 69.616828 34.89172363 69.62997437 C33.53328608 69.63303145 32.17484645 69.63525951 30.81640625 69.63671875 C29.41922876 69.64314792 28.02205261 69.64987637 26.62487793 69.65689087 C23.69959389 69.66885266 20.77442786 69.67257268 17.84912109 69.67138672 C14.10292658 69.67118324 10.35748822 69.69851912 6.61147308 69.73293114 C3.72723927 69.75517687 0.84318839 69.75922505 -2.04112244 69.75816727 C-3.42222202 69.76052545 -4.80332648 69.76936137 -6.18434143 69.784832 C-8.11563332 69.80444692 -10.04714761 69.79614298 -11.97851562 69.78662109 C-13.07675659 69.78947113 -14.17499756 69.79232117 -15.30651855 69.79525757 C-18.82463993 69.18396644 -19.98544023 68.08485987 -22.15234375 65.30078125 C-23.62101948 60.10150432 -23.31385241 54.55793719 -23.3203125 49.1875 C-23.3236409 48.21851273 -23.3269693 47.24952545 -23.33039856 46.25117493 C-23.33544755 44.20627312 -23.33780751 42.16136312 -23.33764648 40.11645508 C-23.3398291 37.00913721 -23.35799594 33.90217686 -23.37695312 30.79492188 C-23.37988835 28.80078245 -23.38187228 26.80664136 -23.3828125 24.8125 C-23.38999802 23.89345383 -23.39718353 22.97440765 -23.40458679 22.0275116 C-23.35525278 7.90240064 -23.35525278 7.90240064 -19.73077393 3.62191772 C-14.28383834 -0.93713429 -6.67202744 -0.00538967 0 0 Z M21.84765625 19.30078125 C21.84765625 19.63078125 21.84765625 19.96078125 21.84765625 20.30078125 C24.81765625 20.30078125 27.78765625 20.30078125 30.84765625 20.30078125 C30.84765625 19.97078125 30.84765625 19.64078125 30.84765625 19.30078125 C27.87765625 19.30078125 24.90765625 19.30078125 21.84765625 19.30078125 Z M-4.15234375 20.30078125 C-4.20174037 24.25175103 -4.2380613 28.20260155 -4.26220703 32.15380859 C-4.27722482 34.15989485 -4.30263356 36.16589449 -4.328125 38.171875 C-4.33457031 39.42871094 -4.34101562 40.68554688 -4.34765625 41.98046875 C-4.35812988 43.14304199 -4.36860352 44.30561523 -4.37939453 45.50341797 C-4.44496372 48.43988404 -4.44496372 48.43988404 -2.15234375 50.30078125 C0.41692656 50.48807878 2.87639602 50.55652767 5.4453125 50.53125 C6.19477646 50.53079178 6.94424042 50.53033356 7.71641541 50.52986145 C9.30094994 50.52683936 10.88548151 50.51895431 12.4699707 50.5065918 C14.90391483 50.48832808 17.33747887 50.48608214 19.77148438 50.48632812 C21.30859706 50.48141326 22.84570715 50.47558507 24.3828125 50.46875 C25.1150856 50.46763718 25.8473587 50.46652435 26.6018219 50.46537781 C30.01288627 50.73562433 30.01288627 50.73562433 32.84765625 49.30078125 C32.94748683 47.31321097 32.97846378 45.32210605 32.98046875 43.33203125 C32.98175781 42.12160156 32.98304688 40.91117188 32.984375 39.6640625 C32.97857422 37.75173828 32.97857422 37.75173828 32.97265625 35.80078125 C32.97652344 34.52589844 32.98039063 33.25101563 32.984375 31.9375 C32.98308594 30.72707031 32.98179687 29.51664063 32.98046875 28.26953125 C32.97877686 26.59020508 32.97877686 26.59020508 32.97705078 24.87695312 C33.13981993 22.36936323 33.13981993 22.36936323 31.84765625 21.30078125 C24.06355532 19.94661284 16.09118822 20.1812629 8.22265625 20.23828125 C7.02769531 20.24279297 5.83273437 20.24730469 4.6015625 20.25195312 C1.68353978 20.26362522 -1.23437412 20.27999799 -4.15234375 20.30078125 Z " fill="#373739" transform="translate(800.15234375,505.69921875)"/>
<path d="M0 0 C1.06064667 0.00007553 2.12129333 0.00015106 3.21408081 0.00022888 C4.9065947 0.00797081 4.9065947 0.00797081 6.63330078 0.01586914 C8.38515182 0.01799156 8.38515182 0.01799156 10.1723938 0.02015686 C13.89116002 0.02574041 17.60986535 0.03828995 21.32861328 0.05102539 C23.85465408 0.05604251 26.38069582 0.06060505 28.90673828 0.06469727 C35.08905061 0.07570446 41.2713276 0.09242626 47.45361328 0.11352539 C47.45361328 0.77352539 47.45361328 1.43352539 47.45361328 2.11352539 C46.79361328 2.11352539 46.13361328 2.11352539 45.45361328 2.11352539 C45.17517578 4.00071289 45.17517578 4.00071289 44.89111328 5.92602539 C44.78669922 6.6337207 44.68228516 7.34141602 44.57470703 8.07055664 C44.31456529 10.31605959 44.31456529 10.31605959 45.45361328 13.11352539 C44.46361328 16.08352539 43.47361328 19.05352539 42.45361328 22.11352539 C30.24361328 22.11352539 18.03361328 22.11352539 5.45361328 22.11352539 C5.45361328 39.27352539 5.45361328 56.43352539 5.45361328 74.11352539 C18.81166575 74.07396388 18.81166575 74.07396388 32.16967773 74.0234375 C33.84374935 74.02051701 35.51782168 74.01796877 37.19189453 74.01586914 C38.49676819 74.00819519 38.49676819 74.00819519 39.82800293 74.00036621 C41.07607727 74.00018494 41.07607727 74.00018494 42.34936523 74 C43.43191338 73.99666908 43.43191338 73.99666908 44.53633118 73.99327087 C46.45361328 74.11352539 46.45361328 74.11352539 49.45361328 75.11352539 C49.48249475 78.42600726 49.50037127 81.73845706 49.51611328 85.05102539 C49.52449219 85.99655273 49.53287109 86.94208008 49.54150391 87.91625977 C49.54472656 88.81538086 49.54794922 89.71450195 49.55126953 90.64086914 C49.55650635 91.47352295 49.56174316 92.30617676 49.56713867 93.1640625 C49.45361328 95.11352539 49.45361328 95.11352539 48.45361328 96.11352539 C46.67548776 96.22821133 44.89281956 96.27316202 43.11108398 96.29052734 C41.96932205 96.30336258 40.82756012 96.31619781 39.65119934 96.329422 C38.40650375 96.33680893 37.16180817 96.34419586 35.87939453 96.35180664 C34.60766891 96.35987839 33.3359433 96.36795013 32.02568054 96.37626648 C29.32624652 96.3901303 26.62693557 96.40113908 23.92749023 96.40869141 C20.47849101 96.4197261 17.03014232 96.45408326 13.58137226 96.49386311 C10.28494431 96.5263932 6.98845853 96.53081513 3.69189453 96.53930664 C2.4573201 96.55681473 1.22274567 96.57432281 -0.04924011 96.59236145 C-9.63277901 96.56813964 -9.63277901 96.56813964 -13.2487793 94.52441406 C-17.7015212 89.85213414 -17.79832166 83.94484986 -17.82104492 77.74462891 C-17.82615585 77.04444641 -17.83126678 76.34426392 -17.83653259 75.62286377 C-17.85032891 73.32929722 -17.84947953 71.03603451 -17.84716797 68.74243164 C-17.85106016 67.13492218 -17.85539591 65.52741375 -17.8601532 63.91990662 C-17.86759383 60.55854959 -17.86733968 57.19729764 -17.86206055 53.8359375 C-17.85626644 49.54443918 -17.87320578 45.25337253 -17.89640522 40.96194553 C-17.91118951 37.64435849 -17.91200794 34.32687433 -17.90889549 31.00926018 C-17.90940627 29.42773521 -17.91459794 27.84620412 -17.92470741 26.26471138 C-18.02301469 8.73776388 -18.02301469 8.73776388 -13.31733704 2.47877502 C-9.57750952 -0.40430876 -4.54486644 -0.01087289 0 0 Z M42.45361328 12.11352539 C43.45361328 15.11352539 43.45361328 15.11352539 43.45361328 15.11352539 Z M41.45361328 15.11352539 C40.79361328 16.76352539 40.13361328 18.41352539 39.45361328 20.11352539 C40.11361328 20.11352539 40.77361328 20.11352539 41.45361328 20.11352539 C41.78361328 18.46352539 42.11361328 16.81352539 42.45361328 15.11352539 C42.12361328 15.11352539 41.79361328 15.11352539 41.45361328 15.11352539 Z M3.45361328 20.11352539 C3.78361328 20.77352539 4.11361328 21.43352539 4.45361328 22.11352539 C21.77861328 21.61852539 21.77861328 21.61852539 39.45361328 21.11352539 C39.45361328 20.78352539 39.45361328 20.45352539 39.45361328 20.11352539 C27.57361328 20.11352539 15.69361328 20.11352539 3.45361328 20.11352539 Z M2.45361328 22.11352539 C2.45361328 24.42352539 2.45361328 26.73352539 2.45361328 29.11352539 C2.78361328 29.11352539 3.11361328 29.11352539 3.45361328 29.11352539 C3.45361328 26.80352539 3.45361328 24.49352539 3.45361328 22.11352539 C3.12361328 22.11352539 2.79361328 22.11352539 2.45361328 22.11352539 Z M2.45361328 32.11352539 C2.45361328 34.75352539 2.45361328 37.39352539 2.45361328 40.11352539 C2.78361328 40.11352539 3.11361328 40.11352539 3.45361328 40.11352539 C3.45361328 37.47352539 3.45361328 34.83352539 3.45361328 32.11352539 C3.12361328 32.11352539 2.79361328 32.11352539 2.45361328 32.11352539 Z M2.45361328 43.11352539 C2.45361328 48.72352539 2.45361328 54.33352539 2.45361328 60.11352539 C2.78361328 60.11352539 3.11361328 60.11352539 3.45361328 60.11352539 C3.45361328 54.50352539 3.45361328 48.89352539 3.45361328 43.11352539 C3.12361328 43.11352539 2.79361328 43.11352539 2.45361328 43.11352539 Z M2.45361328 64.11352539 C2.45361328 66.75352539 2.45361328 69.39352539 2.45361328 72.11352539 C2.78361328 72.11352539 3.11361328 72.11352539 3.45361328 72.11352539 C3.45361328 69.47352539 3.45361328 66.83352539 3.45361328 64.11352539 C3.12361328 64.11352539 2.79361328 64.11352539 2.45361328 64.11352539 Z M46.45361328 92.11352539 C46.45361328 92.77352539 46.45361328 93.43352539 46.45361328 94.11352539 C28.63361328 94.11352539 10.81361328 94.11352539 -7.54638672 94.11352539 C-7.54638672 94.44352539 -7.54638672 94.77352539 -7.54638672 95.11352539 C10.60361328 95.11352539 28.75361328 95.11352539 47.45361328 95.11352539 C46.95861328 93.62852539 46.95861328 93.62852539 46.45361328 92.11352539 Z " fill="#3E3E40" transform="translate(718.54638671875,480.886474609375)"/>
<path d="M0 0 C1.08081848 0.00007553 2.16163696 0.00015106 3.27520752 0.00022888 C4.43574646 0.00539017 5.5962854 0.01055145 6.79199219 0.01586914 C7.98491882 0.01728409 9.17784546 0.01869904 10.40692139 0.02015686 C14.21759548 0.02575501 18.02821085 0.03830721 21.83886719 0.05102539 C24.42219967 0.05604063 27.00553308 0.06060349 29.58886719 0.06469727 C35.92222056 0.07572384 42.25553968 0.09246016 48.58886719 0.11352539 C48.25886719 2.42352539 47.92886719 4.73352539 47.58886719 7.11352539 C46.92886719 7.11352539 46.26886719 7.11352539 45.58886719 7.11352539 C44.91922979 10.17472491 44.46891491 13.18792362 44.15136719 16.30102539 C43.58886719 20.11352539 43.58886719 20.11352539 41.58886719 22.11352539 C38.86495843 22.28864188 36.24143433 22.34515821 33.51855469 22.30883789 C32.46003296 22.30581665 32.46003296 22.30581665 31.38012695 22.30273438 C28.74130768 22.29226175 26.10258098 22.26433914 23.46386719 22.23852539 C14.61574219 22.17665039 14.61574219 22.17665039 5.58886719 22.11352539 C5.58886719 39.60352539 5.58886719 57.09352539 5.58886719 75.11352539 C19.77886719 75.11352539 33.96886719 75.11352539 48.58886719 75.11352539 C48.58886719 81.71352539 48.58886719 88.31352539 48.58886719 95.11352539 C47.59886719 94.61852539 47.59886719 94.61852539 46.58886719 94.11352539 C44.67904773 94.02232868 42.76599533 93.99600002 40.85400391 94 C39.05236282 94.0001133 39.05236282 94.0001133 37.21432495 94.00022888 C35.91222076 94.00539017 34.61011658 94.01055145 33.26855469 94.01586914 C31.92619886 94.01773401 30.58384235 94.01915759 29.2414856 94.02015686 C25.70691044 94.02397661 22.17237632 94.03380227 18.63781738 94.04486084 C15.03166255 94.05508661 11.42550109 94.05965698 7.81933594 94.06469727 C0.74249622 94.07542501 -6.33431562 94.09249494 -13.41113281 94.11352539 C-15.885585 89.06232317 -16.84651938 85.00137673 -16.78344727 79.34570312 C-16.78709793 78.60329376 -16.7907486 77.8608844 -16.79450989 77.09597778 C-16.80255958 74.66278597 -16.7890537 72.23027187 -16.77441406 69.79711914 C-16.77389484 68.09513855 -16.77441495 66.39315736 -16.77592468 64.69117737 C-16.77583521 61.13305651 -16.76545649 57.57516342 -16.74731445 54.01708984 C-16.72461094 49.46539245 -16.72408907 44.91402694 -16.7308321 40.36228848 C-16.73417942 36.85090709 -16.72752791 33.33960083 -16.71770287 29.82823372 C-16.71386504 28.15017147 -16.71269675 26.47210084 -16.71428871 24.79403496 C-16.71466117 22.44651337 -16.70198974 20.09941142 -16.68579102 17.75195312 C-16.68826843 17.06451523 -16.69074585 16.37707733 -16.69329834 15.66880798 C-16.64714244 11.46012466 -16.07422259 7.98854992 -14.41113281 4.11352539 C-9.82162533 0.61100652 -5.64885844 -0.01319827 0 0 Z M42.58886719 12.11352539 C43.58886719 15.11352539 43.58886719 15.11352539 43.58886719 15.11352539 Z M41.58886719 15.11352539 C42.58886719 18.11352539 42.58886719 18.11352539 42.58886719 18.11352539 Z M40.58886719 18.11352539 C41.58886719 20.11352539 41.58886719 20.11352539 41.58886719 20.11352539 Z M3.58886719 20.11352539 C3.91886719 20.77352539 4.24886719 21.43352539 4.58886719 22.11352539 C16.46886719 21.78352539 28.34886719 21.45352539 40.58886719 21.11352539 C40.58886719 20.78352539 40.58886719 20.45352539 40.58886719 20.11352539 C28.37886719 20.11352539 16.16886719 20.11352539 3.58886719 20.11352539 Z M2.58886719 70.11352539 C3.58886719 73.11352539 3.58886719 73.11352539 3.58886719 73.11352539 Z " fill="#3A3A3C" transform="translate(227.4111328125,480.886474609375)"/>
<path d="M0 0 C0.68707031 0.11730469 1.37414062 0.23460937 2.08203125 0.35546875 C9.23458183 2.29292135 14.42643139 8.47391958 19 14 C20.59249531 16.77869416 21.23666467 18.83761079 22 22 C22.18820312 22.76957031 22.37640625 23.53914063 22.5703125 24.33203125 C23.77472325 31.81032707 23.11120796 41.44609381 19 48 C11.62193658 57.25209153 11.62193658 57.25209153 5.9375 58.0625 C4.968125 58.041875 3.99875 58.02125 3 58 C2.67 58.99 2.34 59.98 2 61 C-1.44188495 62.42451219 -5.20269692 62.16775644 -8.875 62.1875 C-10.06867187 62.20167969 -11.26234375 62.21585938 -12.4921875 62.23046875 C-21.55144986 61.63526109 -29.31458638 56.55400613 -35.45703125 50.07421875 C-41.14177585 42.43219499 -41.89240828 33.72571115 -40.6796875 24.5859375 C-39.7553472 19.56088748 -38.10089046 16.13452062 -35 12 C-34.525625 11.113125 -34.05125 10.22625 -33.5625 9.3125 C-31.68848325 6.53895522 -29.94710006 5.54371908 -27 4 C-26.29875 3.484375 -25.5975 2.96875 -24.875 2.4375 C-17.05878462 -1.47060769 -8.45178591 -1.48844622 0 0 Z M19 21 C20 23 20 23 20 23 Z M20 23 C20 28.28 20 33.56 20 39 C20.33 39 20.66 39 21 39 C21 33.72 21 28.44 21 23 C20.67 23 20.34 23 20 23 Z M19 39 C20 42 20 42 20 42 Z M18 42 C18 45 18 45 18 45 Z M16 45 C17 47 17 47 17 47 Z M15 47 C12.36 49.64 9.72 52.28 7 55 C9.95851033 55.316465 9.95851033 55.316465 11.60546875 53.6875 C12.12753906 53.130625 12.64960937 52.57375 13.1875 52 C13.71730469 51.443125 14.24710938 50.88625 14.79296875 50.3125 C15.19128906 49.879375 15.58960938 49.44625 16 49 C15.67 48.34 15.34 47.68 15 47 Z M-15 60 C-15 60.33 -15 60.66 -15 61 C-11.04 61 -7.08 61 -3 61 C-3 60.67 -3 60.34 -3 60 C-6.96 60 -10.92 60 -15 60 Z " fill="#39D8E4" transform="translate(754,170)"/>
<path d="M0 0 C6.93 0 13.86 0 21 0 C21 31.02 21 62.04 21 94 C20.34 93.67 19.68 93.34 19 93 C9.595 93.495 9.595 93.495 0 94 C0 62.98 0 31.96 0 0 Z " fill="#3B3B3D" transform="translate(864,482)"/>
<path d="M0 0 C1.2857341 0.00424484 1.2857341 0.00424484 2.59744263 0.00857544 C5.31771182 0.01971251 8.03764391 0.0448049 10.7578125 0.0703125 C12.60937022 0.08035068 14.46093314 0.08947506 16.3125 0.09765625 C20.8360661 0.11963062 25.35938227 0.1541155 29.8828125 0.1953125 C28.35605243 7.24189746 26.6337093 14.19172532 24.8828125 21.1953125 C12.0128125 20.7003125 12.0128125 20.7003125 -1.1171875 20.1953125 C-1.1171875 36.3653125 -1.1171875 52.5353125 -1.1171875 69.1953125 C-10.5221875 69.6903125 -10.5221875 69.6903125 -20.1171875 70.1953125 C-20.16252898 62.90161227 -20.19915549 55.60799019 -20.22081184 48.31417847 C-20.23121036 44.92668382 -20.24529683 41.53929134 -20.26806641 38.15185547 C-20.29241046 34.24964736 -20.30369275 30.34758287 -20.3125 26.4453125 C-20.32282257 25.23979736 -20.33314514 24.03428223 -20.34378052 22.79223633 C-20.34566839 8.53803384 -20.34566839 8.53803384 -16.8671875 3.3203125 C-11.54810602 -0.09909703 -6.08218343 -0.07636909 0 0 Z M15.8828125 19.1953125 C15.8828125 19.5253125 15.8828125 19.8553125 15.8828125 20.1953125 C17.5328125 20.1953125 19.1828125 20.1953125 20.8828125 20.1953125 C20.8828125 19.8653125 20.8828125 19.5353125 20.8828125 19.1953125 C19.2328125 19.1953125 17.5828125 19.1953125 15.8828125 19.1953125 Z " fill="#363638" transform="translate(393.1171875,505.8046875)"/>
<path d="M0 0 C1.2857341 0.00424484 1.2857341 0.00424484 2.59744263 0.00857544 C5.31771182 0.01971251 8.03764391 0.0448049 10.7578125 0.0703125 C12.60937022 0.08035068 14.46093314 0.08947506 16.3125 0.09765625 C20.8360661 0.11963062 25.35938227 0.1541155 29.8828125 0.1953125 C29.57133036 1.6325419 29.25767796 3.06930107 28.94311523 4.50585938 C28.76868393 5.30600464 28.59425262 6.1061499 28.41453552 6.93054199 C27.78531626 9.61057871 26.95420193 12.13459715 25.9453125 14.6953125 C25.46771484 15.94828125 25.46771484 15.94828125 24.98046875 17.2265625 C23.8828125 19.1953125 23.8828125 19.1953125 20.8828125 20.1953125 C13.6228125 20.1953125 6.3628125 20.1953125 -1.1171875 20.1953125 C-1.1171875 36.3653125 -1.1171875 52.5353125 -1.1171875 69.1953125 C-6.7271875 69.1953125 -12.3371875 69.1953125 -18.1171875 69.1953125 C-19.1071875 69.6903125 -19.1071875 69.6903125 -20.1171875 70.1953125 C-20.23334475 62.36294271 -20.32203513 54.53077695 -20.37624836 46.69776058 C-20.40227637 43.05999637 -20.43754682 39.42282402 -20.49438477 35.78540039 C-20.54895201 32.27106016 -20.5786591 28.75728699 -20.59157372 25.24255562 C-20.60522712 23.25778099 -20.64422145 21.27323263 -20.68367004 19.2888031 C-20.68679646 9.18292403 -20.68679646 9.18292403 -17.96166992 4.94360352 C-12.54705933 -0.28790206 -7.1187787 -0.08938479 0 0 Z " fill="#353537" transform="translate(623.1171875,505.8046875)"/>
<path d="M0 0 C6.6 0 13.2 0 20 0 C19.67 0.66 19.34 1.32 19 2 C18.90665568 4.86831552 18.87425189 7.71218264 18.88647461 10.58056641 C18.88632858 11.46843338 18.88618256 12.35630035 18.8860321 13.27107239 C18.88673045 16.21459369 18.89451919 19.15805221 18.90234375 22.1015625 C18.90420821 24.13894618 18.90563198 26.17633031 18.90663147 28.2137146 C18.91045445 33.58297966 18.92028289 38.95221777 18.93133545 44.32147217 C18.94155426 49.7976444 18.9461301 55.27382098 18.95117188 60.75 C18.96190534 71.50001376 18.97950038 82.25000043 19 93 C9.595 93.495 9.595 93.495 0 94 C0 62.98 0 31.96 0 0 Z " fill="#303032" transform="translate(895,482)"/>
<path d="M0 0 C1 3 1 3 -2 12 C-14.21 12 -26.42 12 -39 12 C-39 29.16 -39 46.32 -39 64 C-25.64194753 63.96043849 -25.64194753 63.96043849 -12.28393555 63.90991211 C-10.60986393 63.90699162 -8.9357916 63.90444337 -7.26171875 63.90234375 C-5.95684509 63.8946698 -5.95684509 63.8946698 -4.62561035 63.88684082 C-3.37753601 63.88665955 -3.37753601 63.88665955 -2.10424805 63.88647461 C-1.02169991 63.88314369 -1.02169991 63.88314369 0.0827179 63.87974548 C2 64 2 64 5 65 C5.02888146 68.31248187 5.04675799 71.62493167 5.0625 74.9375 C5.07087891 75.88302734 5.07925781 76.82855469 5.08789062 77.80273438 C5.09111328 78.70185547 5.09433594 79.60097656 5.09765625 80.52734375 C5.10289307 81.35999756 5.10812988 82.19265137 5.11352539 83.05053711 C5 85 5 85 4 86 C2.18944975 86.09376053 0.37522799 86.1174411 -1.43774414 86.11352539 C-3.17943626 86.11341209 -3.17943626 86.11341209 -4.95631409 86.11329651 C-6.85159096 86.10555458 -6.85159096 86.10555458 -8.78515625 86.09765625 C-10.07111191 86.0962413 -11.35706757 86.09482635 -12.68199158 86.09336853 C-16.10643443 86.08954418 -19.53083509 86.07971462 -22.95526123 86.06866455 C-26.44738189 86.05844864 -29.93950934 86.05387053 -33.43164062 86.04882812 C-40.28777778 86.03809227 -47.14388687 86.02101684 -54 86 C-54.33 85.34 -54.66 84.68 -55 84 C-35.86 84.33 -16.72 84.66 3 85 C2.67 84.01 2.34 83.02 2 82 C1.77281504 79.43365139 1.58391816 76.88321893 1.4375 74.3125 C1.37272461 73.2596582 1.37272461 73.2596582 1.30664062 72.18554688 C1.2008264 70.45724794 1.09993419 68.7286489 1 67 C-0.2367749 66.97494385 -1.4735498 66.9498877 -2.74780273 66.92407227 C-7.31936713 66.83017747 -11.89077318 66.72991371 -16.4621582 66.62768555 C-18.44389146 66.58426856 -20.42566378 66.54259863 -22.4074707 66.50268555 C-25.2496317 66.44514617 -28.09159483 66.38140555 -30.93359375 66.31640625 C-31.82525742 66.29969376 -32.71692108 66.28298126 -33.63560486 66.26576233 C-39.88612829 66.11387171 -39.88612829 66.11387171 -41 65 C-42.06557072 55.381515 -42.16111894 45.67494974 -42.13037109 36.00830078 C-42.12492755 33.97290867 -42.13040522 31.93772998 -42.13671875 29.90234375 C-42.13542969 28.59394531 -42.13414062 27.28554688 -42.1328125 25.9375 C-42.13168457 24.77089844 -42.13055664 23.60429688 -42.12939453 22.40234375 C-41.76279278 12.76279278 -41.76279278 12.76279278 -40 11 C-37.26298822 10.83989519 -34.5483241 10.74053172 -31.80859375 10.68359375 C-30.98875504 10.66281265 -30.16891632 10.64203156 -29.32423401 10.62062073 C-26.69541099 10.55503506 -24.06648496 10.49619874 -21.4375 10.4375 C-19.65949439 10.39432333 -17.88149935 10.35070933 -16.10351562 10.30664062 C-11.73578366 10.19934457 -7.36794773 10.09810296 -3 10 C-2.01 6.7 -1.02 3.4 0 0 Z " fill="#F9FCFE" transform="translate(763,491)"/>
<path d="M0 0 C7.47587939 -0.04640234 14.95172757 -0.08190926 22.42772198 -0.10362434 C25.89937628 -0.11404809 29.37093182 -0.12818138 32.8425293 -0.15087891 C36.83643527 -0.17682701 40.83023798 -0.18648443 44.82421875 -0.1953125 C46.06709152 -0.20563507 47.30996429 -0.21595764 48.59049988 -0.22659302 C49.75132584 -0.22674408 50.91215179 -0.22689514 52.1081543 -0.22705078 C53.12741501 -0.231492 54.14667572 -0.23593323 55.19682312 -0.24050903 C58.92758715 0.07958581 61.80012314 1.05723961 64.75 3.375 C67.43635752 6.86726478 67.12216556 10.89454288 67.11352539 15.14550781 C67.11341209 17.00698456 67.11341209 17.00698456 67.11329651 18.90606689 C67.10819031 20.25508667 67.10297432 21.60410604 67.09765625 22.953125 C67.09579024 24.33746286 67.0943672 25.72180138 67.09336853 27.10614014 C67.08955773 30.74261308 67.07973975 34.37904582 67.06866455 38.01550293 C67.0584195 41.72907976 67.05386429 45.4426631 67.04882812 49.15625 C67.03811616 56.43751829 67.02105704 63.7187535 67 71 C63.52085059 71.02887814 60.04173169 71.04675687 56.5625 71.0625 C55.07266602 71.07506836 55.07266602 71.07506836 53.55273438 71.08789062 C52.13637695 71.09272461 52.13637695 71.09272461 50.69140625 71.09765625 C49.81685791 71.10289307 48.94230957 71.10812988 48.04125977 71.11352539 C46 71 46 71 45 70 C44.90688111 68.49581261 44.88253972 66.98728644 44.88647461 65.48022461 C44.88655014 64.51930405 44.88662567 63.55838348 44.88670349 62.56834412 C44.89186478 61.523564 44.89702606 60.47878387 44.90234375 59.40234375 C44.9037587 58.33834854 44.90517365 57.27435333 44.90663147 56.17811584 C44.91224936 52.76454917 44.92480489 49.351047 44.9375 45.9375 C44.94251269 43.62955824 44.947076 41.32161545 44.95117188 39.01367188 C44.96137567 33.34240279 44.98094757 27.67127399 45 22 C34.11 22 23.22 22 12 22 C12 31.24 12 40.48 12 50 C21.57 50 31.14 50 41 50 C41 50.33 41 50.66 41 51 C36.76419747 51.07407906 32.52873659 51.12856696 28.29248047 51.16479492 C26.85100742 51.17989483 25.40958041 51.20037658 23.96826172 51.22631836 C21.89799657 51.2626513 19.82833793 51.27971329 17.7578125 51.29296875 C16.5114502 51.3086792 15.26508789 51.32438965 13.98095703 51.34057617 C12.5053833 51.17199097 12.5053833 51.17199097 11 51 C8.63991183 47.45986775 8.76536356 45.98878045 8.8046875 41.80078125 C8.81113281 40.59228516 8.81757812 39.38378906 8.82421875 38.13867188 C8.84097656 36.87603516 8.85773437 35.61339844 8.875 34.3125 C8.88402344 33.03826172 8.89304687 31.76402344 8.90234375 30.45117188 C8.92594359 27.30059373 8.95886806 24.15039017 9 21 C9.66 21 10.32 21 11 21 C11.33 20.34 11.66 19.68 12 19 C12 19.66 12 20.32 12 21 C12.95890137 20.96447021 13.91780273 20.92894043 14.90576172 20.89233398 C18.45766668 20.76213037 22.00978534 20.63891227 25.56201172 20.51782227 C27.10049078 20.46439609 28.63890494 20.40906621 30.17724609 20.35180664 C32.38625086 20.26991252 34.59539724 20.19482901 36.8046875 20.12109375 C37.49432587 20.09405869 38.18396423 20.06702362 38.89450073 20.03916931 C43.77225659 19.88612829 43.77225659 19.88612829 46 21 C46.33 37.17 46.66 53.34 47 70 C53.27 70 59.54 70 66 70 C65.93697552 62.28037231 65.86147527 54.56105713 65.76428509 46.84178734 C65.71964371 43.25701541 65.68037434 39.67235549 65.65356445 36.08740234 C65.62746856 32.62476248 65.58702301 29.16255507 65.53681374 25.70018387 C65.51212068 23.74279832 65.50211639 21.78524523 65.49235535 19.82772827 C65.47256119 18.62693634 65.45276703 17.42614441 65.43237305 16.18896484 C65.42126999 15.13639496 65.41016693 14.08382507 65.39872742 12.99935913 C64.9193373 9.39322854 63.98730273 7.04770816 62 4 C58.4546792 1.93368975 55.25222092 1.73506281 51.19995117 1.68115234 C50.05914597 1.66128265 48.91834076 1.64141296 47.7429657 1.62094116 C46.52196671 1.60938995 45.30096771 1.59783875 44.04296875 1.5859375 C42.78486893 1.56657135 41.5267691 1.5472052 40.23054504 1.5272522 C36.89825681 1.47766923 33.56607669 1.43636902 30.23364258 1.39910889 C26.82818761 1.35898376 23.4228981 1.3079304 20.01757812 1.2578125 C13.34515869 1.16182512 6.67266685 1.0767583 0 1 C0 0.67 0 0.34 0 0 Z " fill="#FAFDFF" transform="translate(936,506)"/>
<path d="M0 0 C0.33 0 0.66 0 1 0 C1 19.8 1 39.6 1 60 C-5.93 60 -12.86 60 -20 60 C-21 59 -21 59 -21.12025452 57.05747986 C-21.11803391 56.20698563 -21.11581329 55.35649139 -21.11352539 54.48022461 C-21.11344986 53.51930405 -21.11337433 52.55838348 -21.11329651 51.56834412 C-21.10813522 50.523564 -21.10297394 49.47878387 -21.09765625 48.40234375 C-21.0962413 47.33834854 -21.09482635 46.27435333 -21.09336853 45.17811584 C-21.08775064 41.76454917 -21.07519511 38.351047 -21.0625 34.9375 C-21.05748731 32.62955824 -21.052924 30.32161545 -21.04882812 28.01367188 C-21.03862433 22.34240279 -21.01905243 16.67127399 -21 11 C-31.89 11 -42.78 11 -54 11 C-54 20.24 -54 29.48 -54 39 C-44.43 39 -34.86 39 -25 39 C-30.00074228 42.33382819 -35.7123003 41.05011737 -41.5625 40.8125 C-42.81998047 40.78091797 -44.07746094 40.74933594 -45.37304688 40.71679688 C-47.17032227 40.65008789 -47.17032227 40.65008789 -49.00390625 40.58203125 C-50.10549072 40.54311768 -51.2070752 40.5042041 -52.34204102 40.46411133 C-53.21916748 40.31095459 -54.09629395 40.15779785 -55 40 C-57.39112209 36.41331687 -57.23381027 34.83603431 -57.1953125 30.58203125 C-57.18886719 29.32841797 -57.18242187 28.07480469 -57.17578125 26.78320312 C-57.15902344 25.47287109 -57.14226562 24.16253906 -57.125 22.8125 C-57.11496639 21.47722013 -57.1058412 20.14193311 -57.09765625 18.80664062 C-57.07405367 15.53768355 -57.03818219 12.26881929 -57 9 C-44.13 9.495 -44.13 9.495 -31 10 C-31 9.34 -31 8.68 -31 8 C-29.54176788 7.9729957 -28.08339325 7.95360213 -26.625 7.9375 C-25.81289063 7.92589844 -25.00078125 7.91429687 -24.1640625 7.90234375 C-22 8 -22 8 -20 9 C-19.67 25.5 -19.34 42 -19 59 C-12.73 59 -6.46 59 0 59 C0 39.53 0 20.06 0 0 Z " fill="#FAFDFF" transform="translate(362,517)"/>
<path d="M0 0 C1.07529543 4.30118171 0.84830433 5.20070777 -1 9 C-2 10 -2 10 -5.41821289 10.11352539 C-6.93636987 10.11327433 -8.45453257 10.10771425 -9.97265625 10.09765625 C-10.67934448 10.09664917 -11.38603271 10.09564209 -12.11413574 10.09460449 C-14.76360691 10.08935745 -17.41305502 10.07539629 -20.0625 10.0625 C-25.981875 10.041875 -31.90125 10.02125 -38 10 C-38 27.49 -38 44.98 -38 63 C-23.81 63 -9.62 63 5 63 C5 69.6 5 76.2 5 83 C4.67 83 4.34 83 4 83 C3.505 74.09 3.505 74.09 3 65 C1.73816895 64.98541748 0.47633789 64.97083496 -0.82373047 64.95581055 C-5.49426979 64.89794671 -10.16432092 64.82071383 -14.83447266 64.73754883 C-16.85782971 64.70424321 -18.88128093 64.676229 -20.90478516 64.65356445 C-23.80932852 64.62012165 -26.71300442 64.56781231 -29.6171875 64.51171875 C-30.52556366 64.50532883 -31.43393982 64.4989389 -32.36984253 64.49235535 C-33.21056305 64.47256119 -34.05128357 64.45276703 -34.91748047 64.43237305 C-35.65916473 64.42126999 -36.400849 64.41016693 -37.16500854 64.39872742 C-39 64 -39 64 -41 61 C-41.25396729 58.75450134 -41.25396729 58.75450134 -41.25878906 56.10131836 C-41.26509338 55.10696274 -41.27139771 54.11260712 -41.27789307 53.08811951 C-41.2738446 52.01618851 -41.26979614 50.94425751 -41.265625 49.83984375 C-41.26753845 48.73902969 -41.2694519 47.63821564 -41.27142334 46.50404358 C-41.27278479 44.17644014 -41.26909113 41.8488291 -41.26074219 39.52124023 C-41.25003217 35.94823253 -41.2606443 32.37572649 -41.2734375 28.80273438 C-41.2721161 26.54426972 -41.26955411 24.28580538 -41.265625 22.02734375 C-41.27169769 20.4164109 -41.27169769 20.4164109 -41.27789307 18.77293396 C-41.27158875 17.7817305 -41.26528442 16.79052704 -41.25878906 15.76928711 C-41.25719788 14.89453232 -41.25560669 14.01977753 -41.25396729 13.11851501 C-41 11 -41 11 -39 9 C-36.27999643 8.75443629 -33.65425743 8.62643514 -30.9296875 8.5859375 C-30.13345978 8.56657135 -29.33723206 8.5472052 -28.51687622 8.5272522 C-25.96969366 8.46739526 -23.42246605 8.42104721 -20.875 8.375 C-19.1497197 8.33682579 -17.42445857 8.29777439 -15.69921875 8.2578125 C-11.46630124 8.16168891 -7.23329451 8.07768092 -3 8 C-2.01 5.36 -1.02 2.72 0 0 Z " fill="#F9FCFE" transform="translate(271,493)"/>
<path d="M0 0 C3.94992249 2.17926758 4.96217755 4.80843883 6.38671875 8.8671875 C8.78076116 17.19296556 8.63341732 26.99396292 5.23046875 35.078125 C2.52135346 39.30950507 -1.29765629 42.646934 -5 46 C-5.99 45.67 -6.98 45.34 -8 45 C-7.22076172 44.41605469 -7.22076172 44.41605469 -6.42578125 43.8203125 C-0.50402995 39.06977634 4.33246472 33.92400145 5.21777344 26.06738281 C5.57947566 19.66734598 5.47768722 13.26200241 4 7 C3.34 7 2.68 7 2 7 C0.5393715 4.35261084 0 3.10551666 0 0 Z " fill="#FAFDFF" transform="translate(769,181)"/>
<path d="M0 0 C2.31 0.33 4.62 0.66 7 1 C7 1.66 7 2.32 7 3 C8.65 3 10.3 3 12 3 C12 2.34 12 1.68 12 1 C15.3 1 18.6 1 22 1 C22 1.66 22 2.32 22 3 C28.27 2.67 34.54 2.34 41 2 C36.62190394 4.18904803 33.47373273 4.25911226 28.734375 4.1953125 C27.94097717 4.1924826 27.14757935 4.18965271 26.33013916 4.18673706 C23.80327083 4.17556779 21.27676068 4.15046944 18.75 4.125 C17.0338593 4.11496598 15.31771302 4.10584087 13.6015625 4.09765625 C9.40090426 4.07563914 5.2005128 4.04113187 1 4 C0.67 2.68 0.34 1.36 0 0 Z " fill="#F9FCFE" transform="translate(454,549)"/>
<path d="M0 0 C0.33 0 0.66 0 1 0 C0.99333817 0.61894638 0.98667633 1.23789276 0.97981262 1.87559509 C0.91316642 8.34873228 0.8680783 14.82177112 0.83520508 21.29516602 C0.82016855 23.7073157 0.79973401 26.11943828 0.77368164 28.53149414 C0.73707268 32.00934564 0.72022171 35.48683394 0.70703125 38.96484375 C0.69154739 40.03395493 0.67606354 41.1030661 0.66011047 42.20457458 C0.65871531 48.48720247 1.08916163 54.31406348 4 60 C4.66 60.33 5.32 60.66 6 61 C4.1875 60.9375 4.1875 60.9375 2 60 C-1.41220663 53.97297098 -1.41035073 48.55205135 -1.328125 41.73828125 C-1.32625183 40.67006638 -1.32437866 39.6018515 -1.32244873 38.50126648 C-1.31575024 36.25300962 -1.30187987 34.00476398 -1.28125 31.7565918 C-1.25000934 28.31352924 -1.24026625 24.87092486 -1.234375 21.42773438 C-1.22520751 19.23957774 -1.21483256 17.05142577 -1.203125 14.86328125 C-1.19887512 13.83407059 -1.19462524 12.80485992 -1.19024658 11.74446106 C-1.18063904 10.78634018 -1.17103149 9.8282193 -1.16113281 8.84106445 C-1.15430481 8.0005806 -1.14747681 7.16009674 -1.14044189 6.29414368 C-1.00451893 4.07381753 -0.61550965 2.13252584 0 0 Z " fill="#FAFDFF" transform="translate(926,514)"/>
<path d="M0 0 C0 0.66 0 1.32 0 2 C9.9 2 19.8 2 30 2 C30 1.34 30 0.68 30 0 C35.445 0.495 35.445 0.495 41 1 C41 1.33 41 1.66 41 2 C36.38995525 3.16144985 31.94612253 3.14467558 27.2265625 3.1328125 C25.96360855 3.13424759 25.96360855 3.13424759 24.67514038 3.13571167 C22.89833501 3.13639048 21.12152713 3.1345571 19.34472656 3.13037109 C16.64121859 3.12503203 13.93787775 3.13031934 11.234375 3.13671875 C9.5026038 3.13605765 7.77083271 3.13477584 6.0390625 3.1328125 C5.23779938 3.13483673 4.43653625 3.13686096 3.61099243 3.13894653 C-1.02826886 3.11980913 -5.42303866 2.76676095 -10 2 C-10 1.67 -10 1.34 -10 1 C-6.59437148 0.22157062 -3.49234244 -0.09978121 0 0 Z " fill="#FAFDFF" transform="translate(642,446)"/>
<path d="M0 0 C1 4 1 4 -5 20 C-17.87 20 -30.74 20 -44 20 C-44.33 19.34 -44.66 18.68 -45 18 C-25.695 18.495 -25.695 18.495 -6 19 C-5.01 15.7 -4.02 12.4 -3 9 C-2.44830222 7.28814762 -1.88948989 5.57849397 -1.3125 3.875 C-0.93544922 2.75738281 -0.93544922 2.75738281 -0.55078125 1.6171875 C-0.36902344 1.08351563 -0.18726563 0.54984375 0 0 Z " fill="#F9FCFE" transform="translate(977,557)"/>
<path d="M0 0 C0.33 0.66 0.66 1.32 1 2 C3.64 2 6.28 2 9 2 C9 1.34 9 0.68 9 0 C11.97 0 14.94 0 18 0 C18 0.66 18 1.32 18 2 C28.395 1.505 28.395 1.505 39 1 C34.71186814 3.14406593 31.66428455 3.29106054 27.0234375 3.265625 C26.25697906 3.26753845 25.49052063 3.2694519 24.70083618 3.27142334 C23.08538483 3.27278126 21.46992242 3.26911229 19.85449219 3.26074219 C17.37670572 3.25000739 14.89963942 3.26066552 12.421875 3.2734375 C10.8515609 3.27211641 9.28124724 3.26955507 7.7109375 3.265625 C6.59687027 3.27169769 6.59687027 3.27169769 5.46029663 3.27789307 C0.2299426 3.2299426 0.2299426 3.2299426 -2 1 C-1.34 0.67 -0.68 0.34 0 0 Z " fill="#FAFDFF" transform="translate(543,550)"/>
<path d="M0 0 C19.14 0.33 38.28 0.66 58 1 C58 1.33 58 1.66 58 2 C39.19 2 20.38 2 1 2 C0.67 1.34 0.34 0.68 0 0 Z " fill="#FAFDFF" transform="translate(217,575)"/>
<path d="M0 0 C19.14 0 38.28 0 58 0 C58 0.33 58 0.66 58 1 C38.86 1 19.72 1 0 1 C0 0.67 0 0.34 0 0 Z " fill="#FAFDFF" transform="translate(786,576)"/>
<path d="M0 0 C18.81 0 37.62 0 57 0 C57 0.33 57 0.66 57 1 C38.19 1 19.38 1 0 1 C0 0.67 0 0.34 0 0 Z " fill="#FAFDFF" transform="translate(1023,576)"/>
<path d="M0 0 C16.5 0 33 0 50 0 C50 0.33 50 0.66 50 1 C33.5 1 17 1 0 1 C0 0.67 0 0.34 0 0 Z " fill="#FAFDFF" transform="translate(524,576)"/>
<path d="M0 0 C0.33 0 0.66 0 1 0 C1 16.5 1 33 1 50 C0.67 50 0.34 50 0 50 C0 33.5 0 17 0 0 Z " fill="#FAFDFF" transform="translate(1089,517)"/>
<path d="M0 0 C0.33 0 0.66 0 1 0 C1 16.17 1 32.34 1 49 C0.67 49 0.34 49 0 49 C0 32.83 0 16.66 0 0 Z " fill="#F5F8F9" transform="translate(393,527)"/>
<path d="M0 0 C0.33 0 0.66 0 1 0 C1 16.17 1 32.34 1 49 C0.67 49 0.34 49 0 49 C0 32.83 0 16.66 0 0 Z " fill="#FAFDFF" transform="translate(853,517)"/>
<path d="M0 0 C0.33 0 0.66 0 1 0 C1.08636719 0.75023437 1.17273438 1.50046875 1.26171875 2.2734375 C2.6197016 12.16553278 5.27526784 20.29167997 13 27 C14 28 15 29 16 30 C10.48667966 29.08931762 7.32337606 25.24956283 4 21 C0.34027269 14.16850903 -0.5982186 7.66052149 0 0 Z " fill="#FAFDFF" transform="translate(713,197)"/>
<path d="M0 0 C0.33 0 0.66 0 1 0 C0.8604947 3.39612414 0.71227678 6.79181458 0.5625 10.1875 C0.52318359 11.14720703 0.48386719 12.10691406 0.44335938 13.09570312 C0.40146484 14.02705078 0.35957031 14.95839844 0.31640625 15.91796875 C0.27974854 16.77156982 0.24309082 17.6251709 0.20532227 18.50463867 C-0.00531094 21.06454594 -0.44841536 23.49333243 -1 26 C-1.66 25.67 -2.32 25.34 -3 25 C-3.0544452 22.79194476 -3.09299283 20.58349446 -3.125 18.375 C-3.14820313 17.14523437 -3.17140625 15.91546875 -3.1953125 14.6484375 C-3.00186659 11.0348679 -2.27563444 8.36303624 -1 5 C-0.63893903 3.33911955 -0.29537827 1.67381019 0 0 Z " fill="#F9FCFE" transform="translate(565,273)"/>
<path d="M0 0 C0.33 0.99 0.66 1.98 1 3 C-2.96 6.96 -6.92 10.92 -11 15 C-11.66 14.67 -12.32 14.34 -13 14 C-12.14535156 13.15695312 -11.29070313 12.31390625 -10.41015625 11.4453125 C-9.29413953 10.33867407 -8.17826128 9.23189598 -7.0625 8.125 C-6.49853516 7.56941406 -5.93457031 7.01382812 -5.35351562 6.44140625 C-2.30139972 3.5078429 -2.30139972 3.5078429 0 0 Z " fill="#FAFDFF" transform="translate(775,395)"/>
<path d="M0 0 C0.66 0.33 1.32 0.66 2 1 C0.2758698 2.29838176 -1.45453232 3.58843747 -3.1875 4.875 C-4.63189453 5.95394531 -4.63189453 5.95394531 -6.10546875 7.0546875 C-8.71128675 8.80596599 -11.04792144 9.97459794 -14 11 C-9.85989729 6.45924219 -5.17609824 3.28157862 0 0 Z " fill="#FAFDFF" transform="translate(611,210)"/>
<path d="M0 0 C0.33 0 0.66 0 1 0 C1 7.92 1 15.84 1 24 C0.67 24 0.34 24 0 24 C0 16.08 0 8.16 0 0 Z " fill="#FAFDFF" transform="translate(505,518)"/>
<path d="M0 0 C0.33 0.99 0.66 1.98 1 3 C0.34 3 -0.32 3 -1 3 C-1.2475 3.70125 -1.495 4.4025 -1.75 5.125 C-3.16088026 8.37002459 -4.97895398 11.10316737 -7 14 C-7.33 13.34 -7.66 12.68 -8 12 C-6.6015625 9.43359375 -6.6015625 9.43359375 -4.625 6.4375 C-3.65433594 4.95056641 -3.65433594 4.95056641 -2.6640625 3.43359375 C-1 1 -1 1 0 0 Z " fill="#FAFDFF" transform="translate(581,238)"/>
<path d="M0 0 C0.33 0 0.66 0 1 0 C1 6.93 1 13.86 1 21 C0.67 21 0.34 21 0 21 C0 14.07 0 7.14 0 0 Z " fill="#FAFDFF" transform="translate(592,518)"/>
<path d="M0 0 C-5.37180176 2.62875405 -10.04492601 3.6083965 -16 4 C-13.20344553 2.54120507 -10.41743581 1.34614948 -7.4375 0.3125 C-6.67308594 0.04050781 -5.90867187 -0.23148437 -5.12109375 -0.51171875 C-3 -1 -3 -1 0 0 Z " fill="#FAFDFF" transform="translate(716,439)"/>
<path d="M0 0 C6.27 0 12.54 0 19 0 C19 0.33 19 0.66 19 1 C12.73 1 6.46 1 0 1 C0 0.67 0 0.34 0 0 Z " fill="#FAFDFF" transform="translate(896,576)"/>
<path d="M0 0 C6.27 0 12.54 0 19 0 C19 0.33 19 0.66 19 1 C12.73 1 6.46 1 0 1 C0 0.67 0 0.34 0 0 Z " fill="#FAFDFF" transform="translate(865,576)"/>
<path d="M0 0 C6.27 0 12.54 0 19 0 C19 0.33 19 0.66 19 1 C12.73 1 6.46 1 0 1 C0 0.67 0 0.34 0 0 Z " fill="#FAFDFF" transform="translate(604,576)"/>
<path d="M0 0 C6.27 0 12.54 0 19 0 C19 0.33 19 0.66 19 1 C12.73 1 6.46 1 0 1 C0 0.67 0 0.34 0 0 Z " fill="#FAFDFF" transform="translate(374,576)"/>
<path d="M0 0 C-1.4317616 0.69937202 -2.87067032 1.38412718 -4.3125 2.0625 C-5.51326172 2.63677734 -5.51326172 2.63677734 -6.73828125 3.22265625 C-9 4 -9 4 -12 3 C-10.5682384 2.30062798 -9.12932968 1.61587282 -7.6875 0.9375 C-6.48673828 0.36322266 -6.48673828 0.36322266 -5.26171875 -0.22265625 C-3 -1 -3 -1 0 0 Z " fill="#FAFDFF" transform="translate(629,204)"/>
<path d="M0 0 C0.97791242 2.64036353 1.03638105 3.87266632 0.25 6.625 C-1 9 -1 9 -4 11 C-3.71125 10.29875 -3.4225 9.5975 -3.125 8.875 C-1.97866412 5.94547497 -0.97374346 2.99078347 0 0 Z " fill="#FAFDFF" transform="translate(687,175)"/>
<path d="M0 0 C0.66 0.33 1.32 0.66 2 1 C-3.17578125 4.22265625 -3.17578125 4.22265625 -5 5 C-5.99 4.67 -6.98 4.34 -8 4 C-6.71349294 3.30289269 -5.42059335 2.61757124 -4.125 1.9375 C-3.40570312 1.55464844 -2.68640625 1.17179687 -1.9453125 0.77734375 C-1.30335938 0.52082031 -0.66140625 0.26429688 0 0 Z " fill="#FAFDFF" transform="translate(729,431)"/>
<path d="M0 0 C0 3 0 3 -2 5.1875 C-2.66 5.785625 -3.32 6.38375 -4 7 C-4.66 6.67 -5.32 6.34 -6 6 C-4.02 4.02 -2.04 2.04 0 0 Z " fill="#FAFDFF" transform="translate(682,186)"/>
<path d="M0 0 C4.29 0 8.58 0 13 0 C13 0.33 13 0.66 13 1 C8.71 1 4.42 1 0 1 C0 0.67 0 0.34 0 0 Z " fill="#F9FCFE" transform="translate(1039,526)"/>
<path d="M0 0 C1.8871875 0.061875 1.8871875 0.061875 3.8125 0.125 C3.8125 0.455 3.8125 0.785 3.8125 1.125 C0.1825 1.455 -3.4475 1.785 -7.1875 2.125 C-4.09861478 0.06574319 -3.47814073 -0.1140374 0 0 Z " fill="#FAFDFF" transform="translate(644.1875,198.875)"/>
<path d="M0 0 C0 0.33 0 0.66 0 1 C-4.455 1.495 -4.455 1.495 -9 2 C-5.5647952 -0.29013653 -4.014669 -0.17842973 0 0 Z " fill="#FAFDFF" transform="translate(693,445)"/>
<path d="M0 0 C0.625 1.875 0.625 1.875 1 4 C0.34 4.66 -0.32 5.32 -1 6 C-0.67 4.02 -0.34 2.04 0 0 Z " fill="#FAFDFF" transform="translate(765,485)"/>
<path d="M0 0 C0.33 0.99 0.66 1.98 1 3 C0.01 3.66 -0.98 4.32 -2 5 C-1.34 3.35 -0.68 1.7 0 0 Z " fill="#FAFDFF" transform="translate(791,374)"/>
<path d="M0 0 C0.33 0 0.66 0 1 0 C1 2.64 1 5.28 1 8 C0.67 8 0.34 8 0 8 C0 5.36 0 2.72 0 0 Z " fill="#FAFDFF" transform="translate(564,299)"/>
<path d="M0 0 C0.625 1.8125 0.625 1.8125 1 4 C0.34 4.99 -0.32 5.98 -1 7 C-0.67 4.69 -0.34 2.38 0 0 Z " fill="#FAFDFF" transform="translate(567,266)"/>
<path d="M0 0 C0.66 0.33 1.32 0.66 2 1 C1.34 1.66 0.68 2.32 0 3 C-0.99 2.67 -1.98 2.34 -3 2 C-2.01 1.34 -1.02 0.68 0 0 Z " fill="#FAFDFF" transform="translate(743,423)"/>
<path d="M0 0 C0.33 0.99 0.66 1.98 1 3 C0.34 3.66 -0.32 4.32 -1 5 C-0.67 3.35 -0.34 1.7 0 0 Z " fill="#FAFDFF" transform="translate(273,488)"/>
<path d="M0 0 C0.99 0.33 1.98 0.66 3 1 C1.35 1.33 -0.3 1.66 -2 2 C-1.34 1.34 -0.68 0.68 0 0 Z " fill="#FAFDFF" transform="translate(718,436)"/>
<path d="M0 0 C0.33 0.99 0.66 1.98 1 3 C0.34 3.66 -0.32 4.32 -1 5 C-0.67 3.35 -0.34 1.7 0 0 Z " fill="#FAFDFF" transform="translate(572,252)"/>
<path d="M0 0 C0 0.99 0 1.98 0 3 C-0.99 3.495 -0.99 3.495 -2 4 C-1.34 2.68 -0.68 1.36 0 0 Z " fill="#FAFDFF" transform="translate(584,234)"/>
<path d="M0 0 C0.66 0.33 1.32 0.66 2 1 C0.35 1.33 -1.3 1.66 -3 2 C-2.01 1.34 -1.02 0.68 0 0 Z " fill="#FAFDFF" transform="translate(670,195)"/>
<path d="M0 0 C0.66 0.33 1.32 0.66 2 1 C0.68 1.33 -0.64 1.66 -2 2 C-1.34 1.34 -0.68 0.68 0 0 Z " fill="#F8FBFC" transform="translate(586,549)"/>
<path d="M0 0 C0.33 0 0.66 0 1 0 C1 1.65 1 3.3 1 5 C0.67 5 0.34 5 0 5 C0 3.35 0 1.7 0 0 Z " fill="#FAFDFF" transform="translate(591,540)"/>
<path d="M0 0 C1.65 0 3.3 0 5 0 C5 0.33 5 0.66 5 1 C3.35 1 1.7 1 0 1 C0 0.67 0 0.34 0 0 Z " fill="#FAFDFF" transform="translate(693,444)"/>
<path d="M0 0 C0.66 0.33 1.32 0.66 2 1 C0.68 1.33 -0.64 1.66 -2 2 C-1.34 1.34 -0.68 0.68 0 0 Z " fill="#FAFDFF" transform="translate(733,429)"/>
<path d="M0 0 C0.33 0.99 0.66 1.98 1 3 C0.34 3 -0.32 3 -1 3 C-0.67 2.01 -0.34 1.02 0 0 Z " fill="#FAFDFF" transform="translate(586,231)"/>
<path d="M0 0 C0.66 0.33 1.32 0.66 2 1 C0.68 1.33 -0.64 1.66 -2 2 C-1.34 1.34 -0.68 0.68 0 0 Z " fill="#FAFDFF" transform="translate(759,227)"/>
<path d="M0 0 C0.66 0.33 1.32 0.66 2 1 C0.68 1.33 -0.64 1.66 -2 2 C-1.34 1.34 -0.68 0.68 0 0 Z " fill="#FAFDFF" transform="translate(674,193)"/>
<path d="M0 0 C1 4 1 4 1 4 Z " fill="#FAFDFF" transform="translate(488,569)"/>
<path d="M0 0 C4 1 4 1 4 1 Z " fill="#FAFDFF" transform="translate(628,446)"/>
<path d="M0 0 C4 1 4 1 4 1 Z " fill="#FAFDFF" transform="translate(619,444)"/>
<path d="M0 0 C0.66 0.33 1.32 0.66 2 1 C1.01 1 0.02 1 -1 1 C-0.67 0.67 -0.34 0.34 0 0 Z " fill="#FAFDFF" transform="translate(754,415)"/>
<path d="M0 0 C0 3 0 3 0 3 Z " fill="#FAFDFF" transform="translate(793,371)"/>
<path d="M0 0 C4 1 4 1 4 1 Z " fill="#FAFDFF" transform="translate(629,202)"/>
<path d="M0 0 C4 1 4 1 4 1 Z " fill="#FAFDFF" transform="translate(633,201)"/>
<path d="M0 0 C1 4 1 4 1 4 Z " fill="#FAFDFF" transform="translate(688,158)"/>
<path d="M0 0 C3 1 3 1 3 1 Z " fill="#FAFDFF" transform="translate(783,575)"/>
<path d="" fill="#FAFDFF" transform="translate(0,0)"/>
<path d="" fill="#FAFDFF" transform="translate(0,0)"/>
<path d="" fill="#FAFDFF" transform="translate(0,0)"/>
<path d="" fill="#FAFDFF" transform="translate(0,0)"/>
<path d="" fill="#FAFDFF" transform="translate(0,0)"/>
<path d="" fill="#FAFDFF" transform="translate(0,0)"/>
<path d="M0 0 C3 1 3 1 3 1 Z " fill="#F6F9FB" transform="translate(497,550)"/>
<path d="M0 0 C0.33 0.66 0.66 1.32 1 2 C0.34 1.67 -0.32 1.34 -1 1 C-0.67 0.67 -0.34 0.34 0 0 Z " fill="#FAFDFF" transform="translate(589,547)"/>
<path d="M0 0 C3 1 3 1 3 1 Z " fill="#FAFDFF" transform="translate(644,526)"/>
<path d="" fill="#FAFDFF" transform="translate(0,0)"/>
<path d="" fill="#F0F3F4" transform="translate(0,0)"/>
<path d="" fill="#FAFDFF" transform="translate(0,0)"/>
<path d="" fill="#FAFDFF" transform="translate(0,0)"/>
<path d="" fill="#DFE6EB" transform="translate(0,0)"/>
<path d="M0 0 C3 1 3 1 3 1 Z " fill="#FAFDFF" transform="translate(608,441)"/>
<path d="M0 0 C0.33 0.66 0.66 1.32 1 2 C0.34 1.67 -0.32 1.34 -1 1 C-0.67 0.67 -0.34 0.34 0 0 Z " fill="#FAFDFF" transform="translate(750,418)"/>
<path d="M0 0 C0.33 0.66 0.66 1.32 1 2 C0.34 1.67 -0.32 1.34 -1 1 C-0.67 0.67 -0.34 0.34 0 0 Z " fill="#FAFDFF" transform="translate(785,383)"/>
<path d="" fill="#FAFDFF" transform="translate(0,0)"/>
<path d="M0 0 C2 1 2 1 2 1 Z " fill="#F5F8F9" transform="translate(1019,575)"/>
<path d="M0 0 C2 1 2 1 2 1 Z " fill="#FAFDFF" transform="translate(522,575)"/>
<path d="" fill="#FAFDFF" transform="translate(0,0)"/>
<path d="" fill="#FAFDFF" transform="translate(0,0)"/>
<path d="" fill="#FAFDFF" transform="translate(0,0)"/>
<path d="" fill="#F5F8F9" transform="translate(0,0)"/>
<path d="" fill="#FAFDFF" transform="translate(0,0)"/>
<path d="" fill="#FAFDFF" transform="translate(0,0)"/>
<path d="" fill="#F0F3F4" transform="translate(0,0)"/>
<path d="" fill="#F5F8F9" transform="translate(0,0)"/>
<path d="" fill="#FAFDFF" transform="translate(0,0)"/>
<path d="" fill="#FAFDFF" transform="translate(0,0)"/>
<path d="" fill="#F5F8F9" transform="translate(0,0)"/>
<path d="" fill="#FAFDFF" transform="translate(0,0)"/>
<path d="M0 0 C2 1 2 1 2 1 Z " fill="#FAFDFF" transform="translate(735,428)"/>
<path d="M0 0 C2 1 2 1 2 1 Z " fill="#FAFDFF" transform="translate(737,427)"/>
<path d="M0 0 C2 1 2 1 2 1 Z " fill="#FAFDFF" transform="translate(746,421)"/>
<path d="" fill="#FAFDFF" transform="translate(0,0)"/>
<path d="" fill="#FAFDFF" transform="translate(0,0)"/>
<path d="" fill="#FAFDFF" transform="translate(0,0)"/>
<path d="" fill="#FAFDFF" transform="translate(0,0)"/>
<path d="M0 0 C2 1 2 1 2 1 Z " fill="#FAFDFF" transform="translate(615,208)"/>
<path d="" fill="#FAFDFF" transform="translate(0,0)"/>
<path d="" fill="#FAFDFF" transform="translate(0,0)"/>
<path d="" fill="#FAFDFF" transform="translate(0,0)"/>
<path d="" fill="#FAFDFF" transform="translate(0,0)"/>
<path d="" fill="#FAFDFF" transform="translate(0,0)"/>
<path d="" fill="#FAFDFF" transform="translate(0,0)"/>
<path d="" fill="#FAFDFF" transform="translate(0,0)"/>
<path d="" fill="#FAFDFF" transform="translate(0,0)"/>
<path d="" fill="#FAFDFF" transform="translate(0,0)"/>
<path d="" fill="#FAFDFF" transform="translate(0,0)"/>
<path d="" fill="#FAFDFF" transform="translate(0,0)"/>
<path d="" fill="#FAFDFF" transform="translate(0,0)"/>
<path d="" fill="#FAFDFF" transform="translate(0,0)"/>
<path d="" fill="#FAFDFF" transform="translate(0,0)"/>
<path d="" fill="#FAFDFF" transform="translate(0,0)"/>
<path d="" fill="#FAFDFF" transform="translate(0,0)"/>
<path d="" fill="#FAFDFF" transform="translate(0,0)"/>
<path d="" fill="#FAFDFF" transform="translate(0,0)"/>
<path d="" fill="#F0F3F4" transform="translate(0,0)"/>
<path d="" fill="#FAFDFF" transform="translate(0,0)"/>
<path d="" fill="#F0F3F4" transform="translate(0,0)"/>
<path d="" fill="#FAFDFF" transform="translate(0,0)"/>
<path d="" fill="#FAFDFF" transform="translate(0,0)"/>
<path d="" fill="#FAFDFF" transform="translate(0,0)"/>
<path d="" fill="#FAFDFF" transform="translate(0,0)"/>
<path d="" fill="#7E8182" transform="translate(0,0)"/>
<path d="" fill="#FAFDFF" transform="translate(0,0)"/>
<path d="" fill="#FAFDFF" transform="translate(0,0)"/>
<path d="" fill="#FAFDFF" transform="translate(0,0)"/>
<path d="" fill="#FAFDFF" transform="translate(0,0)"/>
<path d="" fill="#FAFDFF" transform="translate(0,0)"/>
<path d="" fill="#FAFDFF" transform="translate(0,0)"/>
<path d="" fill="#FAFDFF" transform="translate(0,0)"/>
<path d="" fill="#FAFDFF" transform="translate(0,0)"/>
<path d="" fill="#FAFDFF" transform="translate(0,0)"/>
<path d="" fill="#FAFDFF" transform="translate(0,0)"/>
<path d="" fill="#FAFDFF" transform="translate(0,0)"/>
<path d="" fill="#FAFDFF" transform="translate(0,0)"/>
<path d="" fill="#FAFDFF" transform="translate(0,0)"/>
<path d="" fill="#FAFDFF" transform="translate(0,0)"/>
<path d="" fill="#FAFDFF" transform="translate(0,0)"/>
<path d="" fill="#FAFDFF" transform="translate(0,0)"/>
<path d="" fill="#FAFDFF" transform="translate(0,0)"/>
<path d="" fill="#FAFDFF" transform="translate(0,0)"/>
<path d="" fill="#FAFDFF" transform="translate(0,0)"/>
<path d="" fill="#FAFDFF" transform="translate(0,0)"/>
<path d="" fill="#FAFDFF" transform="translate(0,0)"/>
<path d="" fill="#FAFDFF" transform="translate(0,0)"/>
<path d="" fill="#FAFDFF" transform="translate(0,0)"/>
<path d="" fill="#FAFDFF" transform="translate(0,0)"/>
<path d="" fill="#FAFDFF" transform="translate(0,0)"/>
<path d="" fill="#2080C0" transform="translate(0,0)"/>
<path d="" fill="#FAFDFF" transform="translate(0,0)"/>
<path d="" fill="#FAFDFF" transform="translate(0,0)"/>
<path d="" fill="#FAFDFF" transform="translate(0,0)"/>
<path d="" fill="#FAFDFF" transform="translate(0,0)"/>
<path d="" fill="#FAFDFF" transform="translate(0,0)"/>
<path d="" fill="#FAFDFF" transform="translate(0,0)"/>
<path d="" fill="#FAFDFF" transform="translate(0,0)"/>
<path d="" fill="#FAFDFF" transform="translate(0,0)"/>
<path d="" fill="#FAFDFF" transform="translate(0,0)"/>
<path d="" fill="#FAFDFF" transform="translate(0,0)"/>
<path d="" fill="#FAFDFF" transform="translate(0,0)"/>
<path d="" fill="#FAFDFF" transform="translate(0,0)"/>
</svg>
